<svg width="48" height="48" viewBox="0 0 48 48" fill="none" xmlns="http://www.w3.org/2000/svg">
<path d="M15.999 43.9995C17.1036 43.9995 17.999 43.1041 17.999 41.9995C17.999 40.8949 17.1036 39.9995 15.999 39.9995C14.8945 39.9995 13.999 40.8949 13.999 41.9995C13.999 43.1041 14.8945 43.9995 15.999 43.9995Z" stroke="#2962FF" stroke-width="4" stroke-linecap="round" stroke-linejoin="round"/>
<path d="M38 43.9995C39.1046 43.9995 40 43.1041 40 41.9995C40 40.8949 39.1046 39.9995 38 39.9995C36.8954 39.9995 36 40.8949 36 41.9995C36 43.1041 36.8954 43.9995 38 43.9995Z" stroke="#2962FF" stroke-width="4" stroke-linecap="round" stroke-linejoin="round"/>
<path d="M4.099 4.10052H8.099L13.419 28.9405C13.6142 29.8502 14.1203 30.6635 14.8504 31.2402C15.5805 31.817 16.4888 32.1212 17.419 32.1005H36.979C37.8894 32.0991 38.772 31.7871 39.4811 31.2162C40.1901 30.6453 40.6833 29.8496 40.879 28.9605L44.179 14.1005H10.239" stroke="#2962FF" stroke-width="4" stroke-linecap="round" stroke-linejoin="round"/>
</svg>
