<svg width="208" height="228" viewBox="0 0 208 228" fill="none" xmlns="http://www.w3.org/2000/svg">
<g opacity="0.3">
<path d="M71.1002 9.31H21.5154V120.187H71.1002V9.31Z" fill="white"/>
<path d="M74.1392 123.295H18.4766V6.20148H74.1392V123.295ZM24.5544 117.078H68.0614V12.4186H24.5544V117.078Z" fill="#EBEBEB"/>
<path d="M71.1002 62.9999H21.5154V66.1396H71.1002V62.9999Z" fill="#EBEBEB"/>
<path d="M71.1002 39.5925H21.5154V42.7322H71.1002V39.5925Z" fill="#EBEBEB"/>
<path d="M56.5641 15.2577V63.9272H59.3498V15.2577H56.5641Z" fill="#EBEBEB"/>
<path d="M44.9151 15.2577V63.9272H47.7008V15.2577H44.9151Z" fill="#EBEBEB"/>
<path d="M33.2658 15.2577V63.9272H36.0514V15.2577H33.2658Z" fill="#EBEBEB"/>
<path d="M76.7425 5.6886H15.8732V17.0555H76.7425V5.6886Z" fill="#EBEBEB"/>
<path d="M76.7425 5.6886H15.8732V13.6154H76.7425V5.6886Z" fill="#DBDBDB"/>
<path d="M80.5714 0H12.039V11.3669H80.5714V0Z" fill="#EBEBEB"/>
<path d="M165.286 9.31H115.701V120.187H165.286V9.31Z" fill="white"/>
<path d="M168.33 123.295H112.668V6.20148H168.33V123.295ZM118.745 117.078H162.252V12.4186H118.745V117.078Z" fill="#EBEBEB"/>
<path d="M165.286 62.9999H115.701V66.1396H165.286V62.9999Z" fill="#EBEBEB"/>
<path d="M165.286 39.5925H115.701V42.7322H165.286V39.5925Z" fill="#EBEBEB"/>
<path d="M150.755 15.2527V63.9221H153.541V15.2527H150.755Z" fill="#EBEBEB"/>
<path d="M139.106 15.2527V63.9221H141.892V15.2527H139.106Z" fill="#EBEBEB"/>
<path d="M127.457 15.2527V63.9221H130.243V15.2527H127.457Z" fill="#EBEBEB"/>
<path d="M170.933 5.6886H110.064V17.0555H170.933V5.6886Z" fill="#EBEBEB"/>
<path d="M170.933 5.6886H110.064V13.6154H170.933V5.6886Z" fill="#DBDBDB"/>
<path d="M174.762 0H106.23V11.3669H174.762V0Z" fill="#EBEBEB"/>
<path d="M187.941 157.691L194.708 157.546L198.041 157.489C199.15 157.463 200.249 157.489 201.353 157.458L201.13 157.691L201.1 151.894L201.353 152.153L194.632 152.148C192.398 152.148 190.165 152.085 187.926 152.06L188.068 151.92C188.068 152.868 188.022 153.821 187.997 154.79L187.941 157.691ZM187.941 157.691L187.87 154.821C187.87 153.857 187.815 152.878 187.804 151.894V151.754H187.941C190.18 151.728 192.414 151.671 194.647 151.666L201.353 151.635H201.606V151.894V157.691V157.924H201.378C200.249 157.924 199.114 157.924 197.99 157.893L194.617 157.836L187.941 157.691Z" fill="#EBEBEB"/>
<path d="M195.422 165.002L202.189 164.857L205.521 164.8C206.63 164.774 207.73 164.8 208.834 164.768L208.611 165.002L208.585 159.204L208.834 159.463L202.128 159.432C199.894 159.432 197.661 159.37 195.422 159.344L195.564 159.204C195.564 160.152 195.518 161.106 195.498 162.074L195.422 165.002ZM195.422 165.002L195.351 162.131C195.351 161.168 195.295 160.189 195.285 159.204V159.064H195.422C197.661 159.038 199.894 158.981 202.128 158.976L208.834 158.945H209.092V159.204L209.067 165.002V165.235H208.813C207.684 165.235 206.554 165.235 205.425 165.204L202.052 165.147L195.422 165.002Z" fill="#EBEBEB"/>
<path d="M180.45 165.002L187.217 164.857L190.55 164.8C191.654 164.774 192.758 164.8 193.862 164.768L193.639 165.002L193.619 159.204L193.872 159.463L187.166 159.432C184.933 159.432 182.694 159.37 180.461 159.344L180.597 159.204C180.597 160.152 180.557 161.106 180.531 162.074L180.45 165.002ZM180.45 165.002L180.379 162.131C180.354 161.168 180.324 160.189 180.314 159.204V159.064H180.45C182.684 159.038 184.923 158.981 187.156 158.976L193.862 158.945H194.115V159.204L194.125 165.002V165.235H193.903C192.773 165.235 191.639 165.235 190.514 165.204L187.141 165.147L180.45 165.002Z" fill="#EBEBEB"/>
<path d="M7.60222 165.002L14.3638 164.857L17.6965 164.8C18.8057 164.774 19.9098 164.8 21.0139 164.768L20.786 165.002L20.7607 159.204L21.0139 159.463L14.3233 159.432C12.0846 159.432 9.85101 159.37 7.61741 159.344L7.75416 159.204C7.75416 160.152 7.70858 161.106 7.68832 162.074L7.60222 165.002ZM7.60222 165.002L7.52625 162.131C7.52625 161.168 7.47053 160.189 7.4604 159.204V159.064H7.60222C9.83582 159.038 12.0694 158.981 14.3081 158.976L21.0139 158.945H21.2672V159.204L21.2368 165.002V165.235H21.0139C19.8845 165.235 18.7499 165.235 17.6205 165.204L14.2473 165.147L7.60222 165.002Z" fill="#EBEBEB"/>
<path d="M7.60222 8.56406L14.3638 8.41899L17.6965 8.35682C18.8057 8.35682 19.9098 8.35682 21.0139 8.33091L20.786 8.55887L20.7607 2.76662L21.0139 3.02049L14.3233 2.9894C12.0846 2.9894 9.85101 2.93241 7.61741 2.9065L7.75416 2.76662C7.75416 3.71473 7.70858 4.66801 7.68832 5.63166L7.60222 8.56406ZM7.60222 8.56406L7.52625 5.69383C7.52625 4.725 7.47053 3.74581 7.4604 2.76662V2.62674H7.60222C9.83582 2.62674 12.0694 2.54384 14.3081 2.54384L21.0139 2.51276H21.2672V2.77698L21.2368 8.56924V8.80238H21.0139C19.8845 8.80238 18.7499 8.80238 17.6205 8.80238L14.2473 8.74021L7.60222 8.56406Z" fill="#EBEBEB"/>
<path d="M0.141815 15.8898L6.90339 15.7499L10.2361 15.6878C11.3453 15.6878 12.4443 15.6878 13.5535 15.6878L13.3104 15.8898V10.0976L13.5637 10.3514L6.82741 10.2996C4.58875 10.2996 2.35515 10.2426 0.121555 10.2167L0.258306 10.0768C0.258306 11.0249 0.212722 11.9782 0.192463 12.9419L0.141815 15.8898ZM0.141815 15.8898L0.0658416 13.0248C0.0658416 12.0559 0.0101297 11.0767 0 10.0976V9.95767H0.141815C2.37541 9.95767 4.60901 9.87477 6.84767 9.87477L13.5535 9.84369H13.8068V10.1079L13.7561 15.8898V16.1229H13.5333C12.3987 16.1229 11.2693 16.1229 10.1398 16.1229L6.76664 16.0608L0.141815 15.8898Z" fill="#EBEBEB"/>
<path d="M195.422 8.56924L202.189 8.42417L205.521 8.36718C206.63 8.36718 207.73 8.36718 208.834 8.33609L208.611 8.56924L208.585 2.7718L208.834 3.03085L202.128 2.99458C199.894 2.99458 197.661 2.93759 195.422 2.91169L195.564 2.7718C195.564 3.71991 195.518 4.67319 195.498 5.63684L195.422 8.56924ZM195.422 8.56924L195.351 5.69902C195.351 4.73019 195.295 3.75617 195.285 2.7718V2.63192H195.422C197.661 2.63192 199.894 2.5542 202.128 2.54902L208.813 2.51276H209.072V2.7718L209.046 8.56924V8.80238H208.813C207.684 8.80238 206.554 8.80238 205.425 8.77647L202.052 8.71948L195.422 8.56924Z" fill="#EBEBEB"/>
<path d="M107.922 71.7503L101.155 71.8954L97.8223 71.9523C96.7131 71.9523 95.6141 71.9523 94.5049 71.9523L94.7328 71.7244L94.7581 77.5218L94.5049 77.2628L101.216 77.2939C103.449 77.2939 105.683 77.3508 107.922 77.3767L107.78 77.5218C107.78 76.5737 107.825 75.6152 107.846 74.6516L107.922 71.7503ZM107.922 71.7503L107.993 74.6153C107.993 75.5842 108.048 76.5633 108.058 77.5477V77.6876H107.922C105.683 77.7135 103.449 77.7705 101.216 77.7705L94.5049 77.8068H94.2516V77.5425L94.277 71.7451V71.512H94.4998C95.6343 71.512 96.7638 71.512 97.8933 71.543L101.266 71.6L107.922 71.7503Z" fill="#EBEBEB"/>
<path d="M100.426 64.4401L93.6642 64.5852L90.3315 64.6422C89.2223 64.6681 88.1182 64.6422 87.014 64.6681L87.2419 64.4401V70.2375L86.9887 69.9785L93.6946 70.0096C95.9332 70.0096 98.1668 70.0666 100.4 70.0925L100.264 70.2375C100.264 69.2894 100.309 68.331 100.33 67.3673L100.426 64.4401ZM100.426 64.4401L100.502 67.3052C100.502 68.274 100.557 69.2532 100.568 70.2375V70.3774H100.426C98.1921 70.4033 95.9585 70.4603 93.7199 70.4603L87.014 70.4966H86.7507V70.2375L86.781 64.4401V64.207H87.0039C88.1334 64.207 89.2679 64.207 90.3973 64.2381L93.7705 64.295L100.426 64.4401Z" fill="#EBEBEB"/>
<path d="M124.884 227.468C191.64 227.468 245.756 221.952 245.756 215.147C245.756 208.343 191.64 202.827 124.884 202.827C58.1278 202.827 4.01125 208.343 4.01125 215.147C4.01125 221.952 58.1278 227.468 124.884 227.468Z" fill="#EBEBEB"/>
<path d="M5.57623 201.776L46.1254 201.651L86.6796 201.605L167.788 201.522L248.897 201.605L289.451 201.651L330 201.776L289.451 201.905L248.897 201.952L167.788 202.035L86.6796 201.952L46.1254 201.905L5.57623 201.776Z" fill="#263238"/>
<path d="M211.498 74.3718L200.132 11.9367L189.628 74.3666L189.126 74.2785L200.112 8.99908L211.994 74.2733L211.498 74.3718Z" fill="#DBDBDB"/>
<path d="M208.459 125.958L200.254 95.142L192.667 125.953L192.176 125.829L200.234 93.1007L208.945 125.823L208.459 125.958Z" fill="#DBDBDB"/>
<path d="M201.165 9.97329C201.165 10.1844 201.104 10.3907 200.99 10.5662C200.875 10.7417 200.712 10.8785 200.521 10.9593C200.331 11.0401 200.121 11.0612 199.919 11.02C199.716 10.9789 199.53 10.8772 199.384 10.728C199.238 10.5787 199.139 10.3885 199.099 10.1815C199.059 9.97447 199.079 9.75988 199.158 9.56486C199.237 9.36984 199.371 9.20316 199.542 9.08589C199.714 8.96861 199.916 8.90602 200.122 8.90602C200.259 8.90533 200.395 8.93247 200.522 8.98586C200.649 9.03925 200.764 9.11784 200.861 9.21708C200.958 9.31633 201.035 9.43425 201.087 9.56405C201.14 9.69385 201.166 9.83294 201.165 9.97329Z" fill="#A6A6A6"/>
<path d="M209.771 124.912L209.452 129.243L208.687 139.558H192.439L191.674 129.243L191.35 124.912H209.771Z" fill="#2962FF"/>
<path opacity="0.1" d="M209.771 124.912L209.452 129.243H191.674L191.35 124.912H209.771Z" fill="#0F172A"/>
<path d="M210.885 123.523H190.236V126.886H210.885V123.523Z" fill="#2962FF"/>
<path d="M211.447 122.829C211.434 122.965 211.395 123.097 211.331 123.217C211.268 123.337 211.182 123.443 211.079 123.53C210.975 123.616 210.856 123.68 210.728 123.719C210.6 123.758 210.466 123.771 210.333 123.756C210.198 123.935 210.011 124.065 209.799 124.128C209.587 124.191 209.361 124.184 209.153 124.109C209.05 124.337 208.882 124.528 208.67 124.656C208.458 124.784 208.213 124.842 207.968 124.823C208.053 125.118 208.028 125.434 207.898 125.711C207.768 125.988 207.542 126.205 207.264 126.321C207.214 126.488 207.111 126.633 206.97 126.732C206.829 126.831 206.659 126.878 206.489 126.865C206.297 126.836 206.115 126.763 205.957 126.649C205.799 126.536 205.669 126.386 205.577 126.212C205.498 126.319 205.398 126.408 205.283 126.473C205.169 126.538 205.042 126.578 204.911 126.591C204.781 126.603 204.649 126.587 204.525 126.544C204.4 126.501 204.286 126.432 204.189 126.341C204.081 126.232 204.007 126.091 203.977 125.938C203.947 125.784 203.963 125.625 204.022 125.481C203.956 125.45 203.895 125.41 203.84 125.362C203.711 125.227 203.615 125.063 203.558 124.883C203.502 124.703 203.487 124.513 203.516 124.326C203.246 124.437 202.945 124.437 202.675 124.326C202.644 124.465 202.57 124.591 202.464 124.684C202.359 124.777 202.227 124.833 202.087 124.844C202.137 125.02 202.146 125.206 202.112 125.386C202.079 125.566 202.004 125.735 201.895 125.88C201.764 126.032 201.6 126.148 201.415 126.219C201.231 126.291 201.032 126.315 200.836 126.29C200.953 126.86 200.978 127.502 200.477 127.88C200.359 127.97 200.219 128.025 200.073 128.039C199.926 128.054 199.779 128.028 199.646 127.963C199.619 128.108 199.563 128.246 199.482 128.368C199.4 128.489 199.295 128.593 199.173 128.672C199.051 128.75 198.915 128.803 198.772 128.825C198.63 128.848 198.484 128.84 198.344 128.802C198.435 129.152 198.39 129.523 198.218 129.839C198.146 129.966 198.045 130.074 197.925 130.154C197.804 130.234 197.667 130.284 197.524 130.3C197.524 130.854 197.291 131.455 196.658 131.445C196.565 131.441 196.473 131.417 196.39 131.374C196.307 131.331 196.234 131.27 196.177 131.195C196.12 131.12 196.079 131.033 196.058 130.94C196.037 130.847 196.036 130.75 196.055 130.657C195.918 130.625 195.791 130.556 195.687 130.458C195.584 130.359 195.508 130.235 195.466 130.097C195.425 129.959 195.419 129.812 195.451 129.671C195.482 129.53 195.549 129.401 195.645 129.295C195.507 129.183 195.395 129.041 195.319 128.879C195.242 128.717 195.202 128.539 195.202 128.359C195.202 128.179 195.242 128.002 195.319 127.84C195.395 127.678 195.507 127.536 195.645 127.424C195.57 127.349 195.511 127.259 195.472 127.159C195.432 127.059 195.414 126.952 195.416 126.845C195.419 126.738 195.444 126.632 195.488 126.535C195.533 126.437 195.596 126.35 195.675 126.279C195.557 126.178 195.463 126.051 195.399 125.907C195.335 125.764 195.303 125.608 195.306 125.45C195.32 125.258 195.381 125.072 195.484 124.91C195.587 124.748 195.727 124.615 195.893 124.523C195.829 124.497 195.771 124.458 195.722 124.408C195.673 124.358 195.635 124.298 195.609 124.233C195.607 124.204 195.607 124.174 195.609 124.145C195.515 124.187 195.413 124.209 195.311 124.209C195.208 124.209 195.106 124.187 195.012 124.145C194.886 124.086 194.781 123.988 194.713 123.865C194.558 124.016 194.367 124.123 194.159 124.175C193.951 124.228 193.734 124.225 193.528 124.165C193.457 124.298 193.359 124.414 193.24 124.503C193.121 124.593 192.985 124.655 192.84 124.685C192.695 124.716 192.546 124.713 192.402 124.678C192.258 124.642 192.124 124.576 192.008 124.482C191.639 124.823 191.127 125.155 190.641 124.844C190.551 124.784 190.478 124.7 190.43 124.602C190.382 124.504 190.36 124.394 190.367 124.285C190.241 124.287 190.116 124.254 190.007 124.188C189.898 124.122 189.809 124.026 189.749 123.912C189.685 123.778 189.667 123.625 189.698 123.479C189.729 123.333 189.808 123.203 189.922 123.109C189.805 123.022 189.722 122.895 189.689 122.751C189.677 122.65 189.687 122.548 189.716 122.451C189.746 122.354 189.795 122.264 189.86 122.188C189.925 122.111 190.006 122.049 190.096 122.006C190.185 121.963 190.283 121.94 190.383 121.938C190.321 121.763 190.306 121.575 190.34 121.393C190.374 121.21 190.455 121.041 190.575 120.902C190.725 120.747 190.907 120.629 191.108 120.555C191.309 120.482 191.523 120.455 191.735 120.477C191.692 120.217 191.728 119.95 191.839 119.711C191.949 119.473 192.129 119.275 192.353 119.145C192.565 119.039 192.806 119.012 193.036 119.069C193.265 119.126 193.468 119.263 193.609 119.456C193.748 119.242 193.934 119.064 194.152 118.936C194.37 118.807 194.613 118.732 194.864 118.715C195.115 118.699 195.366 118.742 195.598 118.84C195.83 118.939 196.037 119.091 196.202 119.285C196.289 119.098 196.442 118.952 196.629 118.874C196.816 118.797 197.025 118.794 197.215 118.865C197.464 118.983 197.671 119.177 197.808 119.42C197.945 119.663 198.005 119.943 197.98 120.223C198.236 120.094 198.521 120.038 198.805 120.06C199.089 120.083 199.362 120.184 199.595 120.352C199.799 120.514 199.961 120.723 200.07 120.962C200.178 121.2 200.229 121.462 200.218 121.725C200.455 121.594 200.723 121.533 200.991 121.549C201.26 121.566 201.519 121.659 201.738 121.819C202.125 121.229 202.691 120.786 203.349 120.56C203.575 120.5 203.811 120.495 204.039 120.545C204.268 120.594 204.482 120.697 204.665 120.845C204.764 120.499 204.959 120.191 205.226 119.958C205.493 119.724 205.821 119.576 206.17 119.531C206.519 119.485 206.873 119.546 207.189 119.704C207.504 119.862 207.768 120.11 207.947 120.42C208.132 120.265 208.355 120.167 208.591 120.135C208.828 120.104 209.068 120.142 209.285 120.244C209.574 120.406 209.828 120.628 210.031 120.895C210.233 121.163 210.379 121.47 210.46 121.798C210.591 121.796 210.722 121.822 210.844 121.874C210.966 121.925 211.076 122.002 211.168 122.098C211.261 122.194 211.333 122.309 211.381 122.434C211.429 122.56 211.451 122.694 211.447 122.829Z" fill="#37474F"/>
<path d="M212.87 74.5479L212.44 80.3402L211.417 94.1214H189.709L188.686 80.3402L188.25 74.5479H212.87Z" fill="#2962FF"/>
<path opacity="0.1" d="M212.87 74.5479L212.44 80.3402H188.686L188.25 74.5479H212.87Z" fill="#0F172A"/>
<path d="M214.365 72.6932H186.766V77.1902H214.365V72.6932Z" fill="#2962FF"/>
<path d="M213.731 73.8279C213.911 74.0367 214.036 74.289 214.095 74.5608C214.153 74.8327 214.143 75.1153 214.066 75.3822C213.9 75.7431 213.665 76.0664 213.376 76.3333C213.086 76.6002 212.747 76.8053 212.379 76.9364C212.531 77.1492 212.636 77.3927 212.688 77.6506C212.74 77.9084 212.737 78.1746 212.68 78.4313C212.623 78.688 212.512 78.9292 212.357 79.1387C212.201 79.3483 212.003 79.5212 211.776 79.646C212.435 80.4335 212.703 81.3298 211.852 81.9101C212.006 82.1369 212.112 82.3933 212.165 82.6636C212.218 82.9339 212.216 83.2124 212.16 83.4821C212.104 83.7518 211.995 84.0069 211.839 84.2319C211.684 84.4569 211.485 84.6471 211.255 84.7907C211.442 85.4124 210.855 87.2723 209.609 87.2723C209.381 87.2706 209.157 87.2084 208.96 87.0918C208.763 86.9752 208.598 86.8083 208.483 86.6073C208.368 86.4063 208.305 86.1781 208.302 85.945C208.299 85.712 208.354 85.4821 208.464 85.2777C208.251 85.1638 208.068 84.9998 207.929 84.7993C207.79 84.5988 207.699 84.3675 207.665 84.1243C207.63 83.8811 207.652 83.6329 207.73 83.4003C207.807 83.1676 207.937 82.9569 208.11 82.7857C208.11 82.7857 207.34 82.9515 206.97 82.5525C206.871 82.396 206.813 82.2159 206.802 82.0297C206.792 81.8435 206.829 81.6577 206.909 81.4904C206.756 81.2951 206.644 81.0691 206.58 80.827C206.517 80.5848 206.504 80.3319 206.542 80.0842C206.579 79.8365 206.667 79.5996 206.799 79.3886C206.931 79.1776 207.105 78.997 207.309 78.8585C207.155 78.719 207.031 78.5476 206.947 78.3555C206.862 78.1635 206.819 77.9553 206.819 77.7447C206.819 77.534 206.862 77.3258 206.947 77.1338C207.031 76.9417 207.155 76.7703 207.309 76.6308C206.96 76.4683 206.663 76.2078 206.453 75.8795C205.82 76.1904 205.44 75.9158 205.096 75.3096C204.904 75.5315 204.651 75.6903 204.371 75.7659C204.091 75.8415 203.795 75.8305 203.521 75.7345C203.447 75.9925 203.317 76.2301 203.14 76.4291C202.964 76.6282 202.745 76.7835 202.501 76.8834C202.257 76.9832 201.994 77.0249 201.732 77.0054C201.47 76.9859 201.216 76.9056 200.988 76.7706C200.959 77.249 200.793 77.7081 200.512 78.0918C200.421 78.2037 200.325 78.3109 200.224 78.413C200.114 78.5575 200.021 78.7139 199.945 78.8793C199.804 79.1436 199.609 79.3735 199.373 79.5528C199.168 79.725 198.909 79.814 198.644 79.8025C198.38 79.791 198.129 79.68 197.939 79.4906C197.842 79.3717 197.778 79.2277 197.755 79.0742C197.731 78.9208 197.75 78.7638 197.808 78.6202C197.531 78.5235 197.304 78.3188 197.174 78.0508C197.045 77.7828 197.025 77.4734 197.119 77.1903C196.847 77.2128 196.575 77.15 196.338 77.0102C196.102 76.8704 195.913 76.6604 195.797 76.408C195.667 76.5765 195.503 76.7137 195.316 76.8095C195.128 76.9054 194.922 76.9576 194.713 76.9623C194.854 77.3606 194.839 77.7995 194.67 78.1862C194.501 78.573 194.191 78.8772 193.806 79.0347C193.926 79.2359 194.002 79.4604 194.031 79.6937C194.06 79.9271 194.04 80.164 193.974 80.3892C193.908 80.6144 193.796 80.8228 193.646 81.0009C193.495 81.179 193.31 81.3229 193.102 81.4231C193.247 81.6779 193.293 81.979 193.231 82.2669C193.169 82.5547 193.004 82.8083 192.768 82.9774C192.859 83.1925 192.901 83.4258 192.892 83.66C192.882 83.8942 192.821 84.1231 192.712 84.3296C192.616 84.4786 192.481 84.5978 192.323 84.6745C192.165 84.7512 191.99 84.7824 191.816 84.7648C191.709 84.737 191.609 84.6837 191.526 84.6093C191.442 84.5348 191.377 84.4413 191.336 84.3364C191.295 84.2314 191.278 84.1179 191.287 84.0051C191.297 83.8923 191.332 83.7834 191.39 83.6872C191.11 83.5819 190.86 83.4061 190.664 83.1759C190.467 82.9457 190.331 82.6686 190.266 82.3702C190.202 82.0718 190.213 81.7616 190.297 81.4684C190.381 81.1752 190.536 80.9084 190.747 80.6926C190.522 80.6346 190.314 80.5222 190.141 80.3649C189.967 80.2076 189.833 80.01 189.75 79.7886C189.666 79.5673 189.636 79.3287 189.662 79.0929C189.687 78.8571 189.768 78.6311 189.896 78.4337C189.617 78.3671 189.361 78.2208 189.159 78.0117C188.958 77.8026 188.818 77.5394 188.757 77.2525C188.723 77.0416 188.733 76.8258 188.787 76.6194C188.842 76.413 188.938 76.2209 189.071 76.0557C188.925 76.0786 188.776 76.063 188.638 76.0104C188.499 75.9578 188.376 75.87 188.281 75.7552C188.169 75.6072 188.112 75.4239 188.119 75.2371C187.889 75.292 187.649 75.2715 187.431 75.1785C187.214 75.0855 187.031 74.9247 186.908 74.719C186.804 74.5055 186.77 74.2637 186.81 74.0288C186.85 73.794 186.963 73.5784 187.131 73.4134C186.978 73.3637 186.841 73.2747 186.732 73.1549C186.623 73.0352 186.546 72.8887 186.508 72.7295C186.469 72.5351 186.494 72.3329 186.579 72.1545C186.434 72.1858 186.284 72.1862 186.139 72.1559C185.994 72.1255 185.857 72.065 185.736 71.978C185.615 71.891 185.512 71.7794 185.435 71.6503C185.358 71.5211 185.308 71.377 185.287 71.2271C185.267 71.0259 185.315 70.8238 185.421 70.6535C185.528 70.4833 185.688 70.3549 185.875 70.2893C185.771 70.0649 185.743 69.8118 185.794 69.5692C185.956 68.8853 186.731 68.6729 187.344 68.5952C187.267 68.3654 187.251 68.1195 187.295 67.8812C187.339 67.6428 187.442 67.4201 187.595 67.2347C187.748 67.0492 187.945 66.9072 188.167 66.8224C188.389 66.7376 188.629 66.713 188.863 66.7508C188.841 66.4853 188.891 66.2189 189.007 65.9805C189.124 65.742 189.301 65.5408 189.522 65.3986C189.753 65.2653 190.019 65.2055 190.284 65.2267C190.549 65.2479 190.802 65.3492 191.011 65.5177H191.051C191.441 65.5798 191.797 65.7807 192.056 66.0849C192.316 66.3891 192.462 66.7772 192.469 67.1808C192.721 67.0416 193.003 66.9687 193.29 66.9687C193.576 66.9687 193.858 67.0416 194.11 67.1808C194.408 67.3657 194.664 67.6141 194.86 67.9091C195.056 68.2041 195.187 68.5389 195.245 68.8905C195.457 68.6604 195.719 68.485 196.01 68.3785C196.3 68.2721 196.612 68.2376 196.918 68.2781C197.225 68.3185 197.517 68.4327 197.772 68.6112C198.027 68.7897 198.237 69.0274 198.385 69.305C198.618 69.0482 198.918 68.8652 199.25 68.7775C199.582 68.6898 199.931 68.7011 200.256 68.8101C200.582 68.9191 200.87 69.1212 201.087 69.3926C201.304 69.6639 201.44 69.9931 201.48 70.3411C202.051 69.8557 202.733 69.5246 203.462 69.378C204.191 69.2314 204.944 69.274 205.653 69.5018C205.756 69.214 205.922 68.9541 206.139 68.7422C206.355 68.5303 206.616 68.372 206.902 68.2795C207.188 68.1869 207.49 68.1625 207.786 68.2083C208.083 68.2541 208.365 68.3687 208.611 68.5434C208.774 68.1428 209.059 67.8071 209.425 67.5866C209.79 67.3661 210.215 67.2728 210.637 67.3207C211.132 67.4136 211.595 67.6349 211.983 67.9632C212.37 68.2915 212.669 68.7161 212.85 69.1962C213.153 69.218 213.448 69.3105 213.71 69.4667C213.973 69.6228 214.197 69.8385 214.366 70.097C214.535 70.3556 214.643 70.6503 214.683 70.9584C214.724 71.2665 214.694 71.58 214.598 71.8747C214.671 72.0606 214.707 72.2599 214.702 72.4604C214.698 72.6608 214.654 72.8584 214.573 73.041C214.492 73.2236 214.376 73.3875 214.231 73.5227C214.087 73.658 213.917 73.7618 213.731 73.8279Z" fill="#37474F"/>
<path d="M87.0799 212.086C85.9201 212.469 53.0036 212.034 51.7627 211.2C51.2816 210.894 51.0689 205.982 50.9726 200.04C50.9726 199.978 50.9726 199.916 50.9726 199.853C50.9726 198.631 50.9372 197.372 50.9321 196.092C50.9321 195.916 50.9321 195.74 50.9321 195.574L52.5326 178.109L74.5495 178.332L72.3767 195.636V196.325L72.245 199.905V200.273C72.245 200.273 84.7704 206.205 86.0416 207.267C87.3129 208.329 88.2347 211.728 87.0799 212.086Z" fill="#AD6359"/>
<path d="M87.0799 212.085C85.9201 212.469 53.0036 212.034 51.7627 211.2C51.2816 210.894 51.0689 205.982 50.9726 200.04C50.9726 199.978 50.9726 199.916 50.9726 199.853C50.9726 198.631 50.9372 197.372 50.9321 196.092C50.9321 195.916 50.9321 195.74 50.9321 195.574L72.3767 195.636V196.325L72.245 199.905V200.273C72.245 200.273 84.7704 206.205 86.0416 207.267C87.3129 208.329 88.2347 211.728 87.0799 212.085Z" fill="#EBEBEB"/>
<path d="M87.08 212.085C86.4874 212.282 77.5429 212.262 68.8009 212.085C67.0434 212.049 65.2961 212.008 63.6297 211.961C57.3949 211.785 52.244 211.526 51.7628 211.205C51.2816 210.883 51.074 206.127 50.9777 200.294C50.9777 200.211 50.9777 200.128 50.9777 200.045C50.9777 199.962 50.9777 199.915 50.9777 199.858H51.0031L72.2197 199.895V200.268C72.2197 200.268 84.7501 206.195 86.0164 207.257C87.2826 208.319 88.2347 211.728 87.08 212.085Z" fill="#2962FF"/>
<path d="M86.7202 210.775C81.1742 210.562 58.7774 210.257 53.2922 210.459C53.2466 210.459 53.2466 210.495 53.2922 210.495C58.7825 210.832 81.1792 210.966 86.7202 210.868C86.8367 210.868 86.8367 210.78 86.7202 210.775Z" fill="#263238"/>
<path d="M74.595 199.988C72.4171 199.543 69.7378 199.848 68.0512 201.418C67.9854 201.48 68.0512 201.574 68.1424 201.553C70.2369 200.889 72.3951 200.459 74.5798 200.268C74.6161 200.27 74.6516 200.257 74.6787 200.232C74.7058 200.208 74.7221 200.173 74.7241 200.136C74.7262 200.099 74.7137 200.062 74.6895 200.035C74.6652 200.007 74.6313 199.99 74.595 199.988Z" fill="#263238"/>
<path d="M76.1145 200.983C73.9366 200.532 71.2623 200.843 69.5757 202.413C69.5099 202.47 69.5757 202.568 69.6669 202.542C71.7655 201.882 73.9269 201.453 76.1145 201.263C76.1507 201.263 76.1855 201.248 76.2112 201.222C76.2368 201.195 76.2512 201.16 76.2512 201.123C76.2512 201.086 76.2368 201.05 76.2112 201.024C76.1855 200.998 76.1507 200.983 76.1145 200.983Z" fill="#263238"/>
<path d="M77.6998 201.972C75.522 201.527 72.8477 201.832 71.1611 203.402C71.0953 203.464 71.1611 203.558 71.2523 203.537C73.347 202.875 75.5052 202.446 77.6897 202.257C77.7224 202.252 77.7524 202.236 77.7744 202.21C77.7964 202.185 77.8091 202.153 77.8103 202.119C77.8115 202.085 77.8011 202.052 77.781 202.025C77.7608 201.999 77.7321 201.98 77.6998 201.972Z" fill="#263238"/>
<path d="M68.8009 212.08C67.0434 212.044 65.2961 212.003 63.6297 211.956C57.3949 211.78 52.244 211.521 51.7628 211.2C51.2816 210.878 51.074 206.122 50.9777 200.289C50.9777 200.206 50.9777 200.123 50.9777 200.04C50.9777 199.957 50.9777 199.91 50.9777 199.853H51.0031C53.9002 201.936 64.1413 208.91 68.8009 212.08Z" fill="#263238"/>
<path d="M73.5264 199.967H49.8179C49.8179 199.967 54.5889 143.34 54.4066 142.34C54.1686 141.071 45.3203 105.634 43.6236 98.9346C41.0911 88.894 39.0652 81.0967 39.0652 81.0967H59.1574C59.1574 81.0967 61.4974 88.6868 64.4502 98.5668C69.2618 114.628 75.684 136.724 76.3222 142.086C77.3656 150.77 73.5264 199.967 73.5264 199.967Z" fill="#455A64"/>
<path d="M72.6046 195.833C68.9833 195.755 70.0266 195.724 66.4053 195.688C64.6326 195.688 52.9834 195.569 51.3272 195.849C51.3178 195.849 51.3088 195.852 51.3021 195.859C51.2955 195.866 51.2917 195.875 51.2917 195.885C51.2917 195.894 51.2955 195.904 51.3021 195.91C51.3088 195.917 51.3178 195.921 51.3272 195.921C52.9834 196.206 64.6326 196.102 66.4053 196.082C70.0266 196.045 68.9833 196.014 72.6046 195.942C72.6705 195.937 72.6705 195.833 72.6046 195.833Z" fill="#263238"/>
<path d="M58.9954 138.874C58.2155 135.372 57.0556 131.937 56.0426 128.512C53.9897 121.525 51.9232 114.538 49.8433 107.55C48.8067 104.058 47.765 100.566 46.7183 97.0745C46.1848 95.3129 45.6513 93.5532 45.1178 91.7951C44.6113 90.0699 43.9883 88.3653 43.5122 86.6142C43.3197 85.9044 43.2134 86.293 43.4616 87.1893C43.968 89.0026 44.4745 90.8159 44.981 92.6137C45.994 96.1885 47.0221 99.7599 48.0655 103.328C50.1185 110.436 52.1917 117.536 54.2851 124.627C55.3285 128.188 56.3735 131.745 57.4203 135.299C57.9506 136.998 58.3785 138.728 58.7017 140.48C58.9743 142.3 59.0389 144.147 58.8942 145.982C58.6662 149.692 58.2458 153.396 57.9116 157.1C57.5773 160.805 57.2379 164.52 56.8986 168.229C56.2233 175.614 55.5615 182.996 54.9132 190.377C54.8271 191.31 54.7511 192.248 54.6802 193.185C54.6549 193.496 55.1208 193.476 55.1512 193.185C55.9312 185.886 56.5289 178.56 57.2025 171.249C57.8761 163.939 58.5346 156.696 59.198 149.422C59.3652 147.599 59.5576 145.765 59.5576 143.931C59.5562 142.229 59.3677 140.533 58.9954 138.874Z" fill="#263238"/>
<path d="M57.0251 81.0967C55.7994 90.842 54.0925 123.58 53.7127 138.91C51.4436 129.626 45.1581 104.473 43.7552 98.9346L39.2525 81.2366C39.2544 81.2056 39.2544 81.1744 39.2525 81.1434C39.2514 81.133 39.2514 81.1226 39.2525 81.1123L57.0251 81.0967Z" fill="#263238"/>
<path d="M62.3228 212.086C61.168 212.469 28.2516 212.034 27.0056 211.2C26.5295 210.894 26.3118 205.982 26.2155 200.04V199.853C26.2155 198.631 26.175 197.372 26.175 196.092C26.175 195.916 26.175 195.74 26.175 195.574L27.7704 178.109L49.7924 178.332L47.6196 195.636V196.325L47.4879 199.905V200.273C47.4879 200.273 60.0183 206.205 61.2896 207.267C62.5609 208.329 63.4776 211.728 62.3228 212.086Z" fill="#AD6359"/>
<path d="M62.3228 212.085C61.168 212.469 28.2516 212.034 27.0056 211.2C26.5295 210.894 26.3118 205.982 26.2155 200.04V199.853C26.2155 198.631 26.175 197.372 26.175 196.092C26.175 195.916 26.175 195.74 26.175 195.574L47.6196 195.636V196.325L47.4879 199.905V200.273C47.4879 200.273 60.0183 206.205 61.2896 207.267C62.5609 208.329 63.4776 211.728 62.3228 212.085Z" fill="#EBEBEB"/>
<path d="M62.3278 212.086C61.7302 212.282 52.7856 212.262 44.0437 212.086C42.2862 212.049 40.5388 212.008 38.8725 211.961C32.6377 211.78 27.4918 211.521 27.0106 211.21C26.5295 210.899 26.3218 206.133 26.2256 200.299C26.2256 200.216 26.2256 200.133 26.2256 200.05C26.2256 199.967 26.2256 199.921 26.2256 199.864L47.4422 199.9V200.273C47.4422 200.273 59.9676 206.2 61.2389 207.262C62.5102 208.324 63.4775 211.728 62.3278 212.086Z" fill="#2962FF"/>
<path d="M61.9684 210.775C56.3971 210.562 34.0256 210.257 28.5404 210.459C28.4948 210.459 28.4948 210.495 28.5404 210.495C34.0358 210.832 56.4325 210.966 61.9684 210.868C62.0849 210.868 62.0849 210.78 61.9684 210.775Z" fill="#263238"/>
<path d="M49.8178 199.988C47.64 199.543 44.9657 199.848 43.2791 201.418C43.2133 201.48 43.2791 201.574 43.3703 201.553C45.4648 200.889 47.623 200.459 49.8077 200.268C49.8257 200.269 49.8436 200.266 49.8604 200.259C49.8773 200.253 49.8927 200.243 49.9059 200.231C49.9191 200.218 49.9297 200.203 49.9372 200.186C49.9447 200.17 49.9489 200.152 49.9495 200.133C49.9502 200.115 49.9473 200.097 49.9411 200.079C49.9348 200.062 49.9253 200.046 49.9131 200.033C49.9008 200.019 49.8861 200.008 49.8698 200.001C49.8535 199.993 49.8358 199.989 49.8178 199.988Z" fill="#263238"/>
<path d="M51.3828 200.983C49.2049 200.532 46.5307 200.843 44.839 202.413C44.7732 202.47 44.839 202.568 44.9302 202.542C47.0272 201.883 49.1869 201.454 51.3727 201.263C51.3906 201.263 51.4086 201.26 51.4254 201.254C51.4423 201.248 51.4577 201.238 51.4709 201.225C51.484 201.213 51.4947 201.198 51.5022 201.181C51.5096 201.164 51.5138 201.146 51.5145 201.128C51.5152 201.11 51.5123 201.091 51.506 201.074C51.4998 201.057 51.4903 201.041 51.478 201.028C51.4658 201.014 51.4511 201.003 51.4348 200.996C51.4184 200.988 51.4008 200.984 51.3828 200.983Z" fill="#263238"/>
<path d="M52.9479 201.972C50.77 201.527 48.0958 201.832 46.4041 203.402C46.3383 203.464 46.4041 203.558 46.4953 203.537C48.5901 202.876 50.7483 202.447 52.9327 202.257C52.9656 202.253 52.996 202.237 53.0186 202.212C53.0412 202.187 53.0546 202.155 53.0564 202.121C53.0582 202.087 53.0483 202.054 53.0285 202.027C53.0087 202 52.9802 201.98 52.9479 201.972Z" fill="#263238"/>
<path d="M58.5294 81.0967C58.5294 81.0967 58.0634 90.9405 55.8653 98.7118C55.688 99.3543 55.4955 99.9915 55.2879 100.598C55.2879 100.598 55.5968 100.349 52.097 102.541C52.097 102.541 53.4493 141.646 53.505 143.988C53.7026 152.718 47.4981 200.33 47.4981 200.33L23.7946 200.429C23.7946 200.429 32.2631 146.449 32.2327 143.242C32.1871 138.097 29.1938 115.747 30.1206 99.1781C30.5184 92.8805 32.1568 86.7302 34.9373 81.0967H58.5294Z" fill="#455A64"/>
<path d="M46.8194 196.014C43.1981 195.952 44.2364 195.916 40.615 195.895C38.8423 195.895 27.1982 195.833 25.542 196.123C25.5326 196.123 25.5236 196.127 25.5169 196.134C25.5103 196.141 25.5065 196.15 25.5065 196.159C25.5065 196.169 25.5103 196.178 25.5169 196.185C25.5236 196.192 25.5326 196.196 25.542 196.196C27.1982 196.47 38.8423 196.315 40.615 196.289C44.2364 196.237 43.1981 196.211 46.8194 196.118C46.8329 196.118 46.8457 196.113 46.8552 196.103C46.8647 196.093 46.8701 196.08 46.8701 196.066C46.8701 196.052 46.8647 196.039 46.8552 196.03C46.8457 196.02 46.8329 196.014 46.8194 196.014Z" fill="#263238"/>
<path d="M36.4823 82.5628C33.4839 88.4586 32.3645 95.1679 32.1214 101.732C31.858 108.877 32.6937 116 33.4281 123.093C34.2031 130.548 34.8716 138.019 34.3145 145.516C33.7574 153.013 32.4405 160.608 31.3769 168.12C30.3133 175.633 29.199 183.145 28.2873 190.678C28.1708 191.631 28.0543 192.585 27.948 193.538C27.948 193.59 28.0138 193.61 28.0189 193.538C29.3206 186.114 30.3892 178.648 31.4984 171.193C32.6076 163.737 33.8485 156.339 34.5981 148.868C35.3477 141.397 35.0337 133.983 34.2993 126.533C33.5953 119.358 32.6684 112.187 32.6431 104.965C32.6431 98.2298 33.2863 91.3755 35.6111 85.0444C35.9201 84.2051 36.2543 83.3658 36.6241 82.5368C36.6494 82.4436 36.543 82.4384 36.4823 82.5628Z" fill="#263238"/>
<path d="M56.4071 100.017C54.0491 101.022 51.7816 102.235 49.6303 103.644C49.6122 103.654 49.5986 103.67 49.5924 103.69C49.5862 103.71 49.588 103.732 49.5974 103.75C49.6068 103.769 49.623 103.783 49.6425 103.789C49.662 103.795 49.6831 103.793 49.7013 103.784C51.9855 102.649 54.3204 101.556 56.5439 100.292C56.5742 100.27 56.5959 100.239 56.605 100.202C56.6141 100.166 56.6098 100.127 56.5931 100.093C56.5764 100.06 56.5483 100.033 56.5141 100.019C56.4799 100.006 56.4418 100.005 56.4071 100.017Z" fill="#263238"/>
<path d="M56.5388 91.6761C56.3818 92.5362 56.1792 93.391 55.9969 94.2666C55.8146 95.1421 55.6981 95.8882 55.4904 96.6861C55.3197 97.4544 54.9385 98.1571 54.3913 98.7118C54.0824 99.0019 53.743 99.2662 53.4138 99.5304C53.2365 99.6754 53.0441 99.8153 52.8617 99.9604C52.8617 99.8464 52.9023 99.7324 52.9225 99.6133C52.9833 99.2869 53.034 98.9605 53.0897 98.6341C53.2062 97.9088 53.3227 97.1834 53.429 96.4529C53.6417 95.023 53.8393 93.5775 54.133 92.1631C54.133 92.1061 54.0571 92.0854 54.0469 92.1631C53.6974 93.5672 53.3125 94.9505 53.0086 96.37C52.8618 97.0643 52.3299 100.515 52.3046 100.732C52.2793 100.95 52.259 101.25 52.254 101.484C52.2185 101.738 52.2185 101.996 52.254 102.25C52.254 102.313 52.3401 102.302 52.3654 102.25C52.4674 102.012 52.5389 101.761 52.5781 101.504C52.6389 101.261 52.6946 101.012 52.7351 100.763C52.7351 100.675 52.7655 100.582 52.7756 100.489C53.1049 100.287 53.4138 100.012 53.7228 99.7842C54.0317 99.5563 54.3913 99.2972 54.7054 99.0278C55.2861 98.5249 55.706 97.8553 55.9108 97.1057C56.1133 96.2989 56.2455 95.4754 56.3058 94.6448C56.4122 93.6708 56.4882 92.6916 56.6199 91.7227C56.6351 91.6399 56.549 91.6139 56.5388 91.6761Z" fill="#263238"/>
<path d="M54.9485 53.1923C55.2524 57.2231 57.5873 66.7145 62.8041 75.1387C64.83 78.3871 72.9338 82.6769 79.5687 85.4538C82.0188 86.5252 84.5429 87.41 87.1204 88.1013C87.3826 88.1647 87.6481 88.2131 87.9156 88.2463C91.0811 88.6349 93.2641 83.739 93.6135 80.0761C93.6135 79.9776 93.6135 79.874 93.6135 79.7756V79.615C93.6946 78.1177 93.4464 76.895 92.8082 76.4183C92.582 76.2562 92.347 76.1075 92.1042 75.9728C90.1962 74.9672 88.2404 74.0594 86.2442 73.2528C85.6617 73.0041 85.0489 72.7347 84.431 72.4964C78.6013 70.0976 71.9107 67.5227 71.2624 66.901C70.2494 65.9425 63.9741 58.5131 60.3577 52.1095C57.7038 47.4415 54.442 46.4934 54.9485 53.1923Z" fill="#AD6359"/>
<path d="M79.5688 85.4537C82.0189 86.5251 84.543 87.41 87.1205 88.1012C90.3243 88.9255 93.6081 89.3808 96.9108 89.4586C98.9368 89.4586 104.761 88.8421 104.883 87.2515C105.004 85.661 103.287 85.6972 103.287 85.6972C103.287 85.6972 105.708 85.06 105.688 83.4487C105.688 82.1276 103.88 81.9774 103.232 81.9618C103.217 81.9536 103.2 81.9494 103.184 81.9494C103.167 81.9494 103.15 81.9536 103.136 81.9618H102.999C102.999 81.9618 105.44 81.1225 105.308 79.5164C105.192 78.0813 103.049 78.4025 102.599 78.4802C102.973 78.3611 104.721 77.7083 104.118 76.5633C103.333 75.009 99.2913 76.7343 97.0273 76.6099C96.921 76.6099 96.3588 76.5374 95.5535 76.439C93.8922 75.1489 91.8257 73.9521 90.909 73.7294C89.3576 73.4577 87.7877 73.3105 86.2139 73.289C85.6314 73.0403 85.0186 72.7709 84.4007 72.5326C83.1496 73.9418 79.3966 78.8015 79.5688 85.4537Z" fill="#AD6359"/>
<path d="M86.7507 75.2733L86.2746 82.2416V82.2675V82.423L85.9099 87.7075C86.3025 87.8665 86.7053 87.9981 87.1153 88.1012C90.3208 88.926 93.6063 89.3813 96.9107 89.4586C98.9367 89.4586 104.761 88.8421 104.883 87.2516C105.004 85.661 103.287 85.6973 103.287 85.6973C103.287 85.6973 105.708 85.06 105.688 83.4488C105.688 82.1277 103.88 81.9774 103.232 81.9619H102.999C102.999 81.9619 105.44 81.1226 105.308 79.5165C105.192 78.0814 103.049 78.4026 102.599 78.4803H102.538H102.583C102.958 78.3611 104.706 77.7083 104.103 76.5634C103.318 75.0091 99.276 76.7343 97.012 76.61C96.9057 76.61 96.3435 76.5375 95.5382 76.439L92.1093 76.009L86.7507 75.2733Z" fill="#AD6359"/>
<path d="M94.8545 79.247C95.787 79.5293 96.7407 79.732 97.706 79.8532C99.417 80.0322 101.135 79.5842 102.553 78.5891C102.634 78.5424 102.644 78.4854 102.619 78.4544C102.601 78.4456 102.581 78.441 102.561 78.441C102.54 78.441 102.521 78.4456 102.502 78.4544C101.083 79.123 99.5418 79.4762 97.9795 79.4905C96.9435 79.4619 95.9116 79.344 94.895 79.1382C94.7987 79.1382 94.7683 79.2315 94.8545 79.247Z" fill="#263238"/>
<path d="M94.9658 82.7234C98.1871 83.3399 100.091 83.5523 103.156 82.1017C103.252 82.0602 103.277 81.9722 103.232 81.9359C103.217 81.9277 103.2 81.9235 103.184 81.9235C103.167 81.9235 103.15 81.9277 103.135 81.9359C99.9446 82.9462 98.3035 82.9721 95.0013 82.6405C94.9354 82.6301 94.9202 82.7234 94.9658 82.7234Z" fill="#263238"/>
<path d="M103.019 85.7387C99.8483 86.4952 98.0503 86.6143 94.8797 85.8579C94.8652 85.8562 94.8505 85.8599 94.8384 85.8683C94.8263 85.8768 94.8176 85.8894 94.8139 85.904C94.8102 85.9185 94.8117 85.9339 94.8182 85.9473C94.8248 85.9607 94.8358 85.9713 94.8493 85.9771C98.0047 87.0702 100.254 86.9407 103.029 85.8424C103.222 85.7646 103.216 85.6921 103.019 85.7387Z" fill="#263238"/>
<path d="M87.6218 82.1328C87.7929 82.1138 87.9623 82.0809 88.1283 82.0344L88.2651 81.993C90.8684 81.1329 91.8105 77.1592 91.8105 77.1592C92.6902 77.3731 93.5869 77.5066 94.4898 77.5581C95.7914 77.6306 97.1134 77.5218 97.8883 76.9986C98.0951 76.8696 98.2687 76.692 98.3948 76.4805C98.4613 76.366 98.5108 76.242 98.5416 76.1126C98.5416 76.1126 98.5416 76.1126 98.5416 76.0764C98.6632 75.3407 97.1843 74.4755 95.4116 73.7812C93.4616 73.0196 91.152 72.4653 90.21 72.5171C88.6477 72.7053 87.1018 73.0154 85.5858 73.4445C84.9425 73.6154 84.5171 73.7398 84.5171 73.7398C84.5171 73.7398 84.5373 82.4903 87.6218 82.1328Z" fill="#AD6359"/>
<path d="M98.2378 76.5943C96.5157 78.0968 93.882 77.273 91.8713 76.9518C91.7193 76.9259 91.6484 77.0399 91.6535 77.1642C91.0659 79.0708 89.6934 81.5887 87.7231 82.2156C87.7111 82.2156 87.6995 82.2205 87.6909 82.2293C87.6824 82.238 87.6776 82.2499 87.6776 82.2622C87.6776 82.2746 87.6824 82.2865 87.6909 82.2952C87.6995 82.304 87.7111 82.3089 87.7231 82.3089C89.9264 81.9307 91.4711 79.5682 91.9827 77.4388C94.039 77.8067 96.7133 78.5113 98.2327 76.6099L98.2378 76.5943Z" fill="#263238"/>
<path d="M57.1923 65.4762L69.7733 64.0307C69.7733 64.0307 61.9785 52.2286 58.732 49.4206C55.0751 46.2602 54.2952 48.861 54.6345 53.5083C54.9739 58.1556 57.1923 65.4762 57.1923 65.4762Z" fill="#2962FF"/>
<path opacity="0.1" d="M57.1923 65.4762L69.7733 64.0307C69.7733 64.0307 61.9785 52.2286 58.732 49.4206C55.0751 46.2602 54.2952 48.861 54.6345 53.5083C54.9739 58.1556 57.1923 65.4762 57.1923 65.4762Z" fill="#0F172A"/>
<path d="M67.3574 61.7356C65.7316 61.7356 60.8491 62.3884 60.0387 62.492C59.6133 62.5438 57.9216 62.8339 57.5063 62.8858C57.4557 62.8858 57.4709 62.9738 57.5063 62.9686C58.3167 62.8754 59.1423 62.865 59.9577 62.777C60.7731 62.6889 65.762 62.1915 67.3574 61.8029C67.364 61.8003 67.3697 61.7956 67.3736 61.7896C67.3776 61.7836 67.3797 61.7765 67.3797 61.7693C67.3797 61.762 67.3776 61.7549 67.3736 61.7489C67.3697 61.7429 67.364 61.7383 67.3574 61.7356Z" fill="#263238"/>
<path d="M63.9589 64.6991L57.2176 65.4711C57.2176 65.4711 55.0043 58.1505 54.6852 53.5032C54.437 50.1304 54.7814 47.8301 56.3971 48.0477L63.9589 64.6991Z" fill="#263238"/>
<path d="M30.8601 90.5933C30.931 90.6917 63.503 94.1008 63.8525 93.7692C64.359 93.3029 61.239 54.2907 58.1495 49.2134C57.491 48.1254 52.2084 46.6229 49.8634 48.3119C42.332 53.7104 30.6068 90.2306 30.8601 90.5933Z" fill="#2962FF"/>
<path opacity="0.1" d="M55.337 61.1153L49.1526 60.4894L49.0534 61.5154L55.2377 62.1413L55.337 61.1153Z" fill="#0F172A"/>
<path d="M77.173 67.2274C77.0059 67.4657 73.1212 74.8744 72.9591 75.7137C72.797 76.553 67.3877 96.9088 67.6967 97.515C68.0057 98.1212 76.4943 101.546 76.8691 101.546C77.2439 101.546 94.0896 97.7067 94.9962 97.0591C95.9028 96.4115 96.2321 80.5372 95.8927 78.9259C95.5534 77.3146 94.5353 74.3615 94.5353 74.3615L95.1634 73.4704C95.1634 73.4704 93.4312 65.9892 93.102 66.2482C92.7728 66.5073 77.5377 66.7041 77.173 67.2274Z" fill="#2962FF"/>
<path opacity="0.1" d="M76.8641 101.551C76.4944 101.551 68.0158 98.1212 67.6967 97.515C67.3777 96.9088 72.8224 76.5582 72.9591 75.7189C73.0959 74.8796 77.011 67.4709 77.1731 67.2274C77.8973 68.7817 78.4899 75.6205 78.5811 76.5064C78.6723 77.3924 77.0312 99.7221 76.8641 101.551Z" fill="#0F172A"/>
<path opacity="0.1" d="M94.5353 74.346C93.2489 74.5533 91.9523 74.6776 90.6557 74.8071C89.3591 74.9367 88.0574 75.0455 86.7608 75.1335C85.4642 75.2216 84.1625 75.3045 82.8609 75.3719C81.5592 75.4392 80.2575 75.4755 78.9559 75.5221C78.888 75.5091 78.8241 75.4797 78.7695 75.4365C78.7149 75.3933 78.6712 75.3374 78.6418 75.2734C78.5897 75.1786 78.5489 75.0777 78.5203 74.9729C78.4581 74.7766 78.4107 74.5757 78.3785 74.3719C78.3068 73.9732 78.2628 73.5698 78.2468 73.1648C78.3228 73.5637 78.4038 73.9575 78.5102 74.3409C78.5589 74.5336 78.6215 74.7223 78.6976 74.9056C78.7634 75.0714 78.9001 75.2682 78.9609 75.2631C80.2575 75.1491 81.5541 75.0092 82.8507 74.9108C84.1473 74.8123 85.449 74.7191 86.7507 74.6465C88.0523 74.574 89.3489 74.5015 90.6506 74.46C91.9523 74.4186 93.2337 74.3771 94.5353 74.346Z" fill="#0F172A"/>
<path d="M90.357 77.3405L87.9411 77.3664L86.376 72.4756L88.7919 72.4549L90.357 77.3405Z" fill="white"/>
<g opacity="0.1">
<path d="M76.9351 68.9579C76.6362 71.196 76.2868 73.4238 75.9221 75.6464C75.5574 77.869 75.1674 80.0917 74.7876 82.3143C74.4077 84.5369 73.9772 86.7439 73.5416 88.9562L72.8832 92.272C72.6401 93.3755 72.4223 94.479 72.169 95.5774C72.3109 94.4583 72.4881 93.3444 72.6451 92.2305L73.1516 88.8888C73.5112 86.661 73.9113 84.4436 74.2861 82.221C74.6609 79.9984 75.0965 77.7913 75.5321 75.5791C75.9677 73.3668 76.4387 71.1546 76.9351 68.9579Z" fill="#0F172A"/>
<path d="M68.4058 97.1731C69.6011 96.4996 70.8369 95.9089 72.0829 95.3546L72.2348 95.2872L72.3513 95.4219C73.03 96.2094 73.6986 97.0073 74.3469 97.8311C74.9952 98.6548 75.6131 99.4941 76.1955 100.365C75.4358 99.6444 74.7166 98.888 74.0227 98.116C73.3288 97.3441 72.6552 96.5617 71.9968 95.7328L72.2652 95.8001C70.999 96.3131 69.7176 96.7845 68.4058 97.1731Z" fill="#0F172A"/>
</g>
<path d="M46.7688 52.3011C43.7298 60.689 38.0319 81.6665 42.2104 84.345C49.1188 88.7436 63.1789 90.0803 67.4283 90.044C69.2617 90.044 71.4244 75.6307 69.5302 75.1075C67.2561 74.4806 52.6592 74.0195 52.3705 72.8279C52.2084 72.1492 52.6946 65.3156 51.864 57.7722C50.9118 49.0112 47.807 49.4309 46.7688 52.3011Z" fill="#AD6359"/>
<path d="M63.2903 76.1798C63.2903 76.1798 67.9347 73.0195 71.0699 71.0974C72.8172 70.0249 75.9726 68.4603 77.6086 68.2738C80.0549 67.9992 90.4632 68.4292 90.4125 71.0145C90.372 73.3511 81.4731 71.8175 81.4731 71.8175C81.4731 71.8175 90.5898 72.5532 90.0276 75.3612C89.4654 78.1693 79.6396 75.0659 79.6396 75.0659C79.6396 75.0659 88.9842 76.0348 87.9611 78.8376C87.1862 80.9514 78.1353 78.6615 78.1353 78.6615C78.1353 78.6615 86.158 79.5526 85.454 81.77C84.6791 84.2154 76.1904 82.6352 76.1904 82.6352C73.4757 87.9457 70.1835 89.6554 67.5143 90.0388C66.8812 90.1165 63.2903 76.1798 63.2903 76.1798Z" fill="#AD6359"/>
<path d="M78.3379 71.3565C79.4117 71.4032 80.5006 71.4446 81.5642 71.5897C82.6278 71.7347 83.6915 71.9161 84.7399 72.1596C86.1154 72.4504 87.4531 72.9042 88.7259 73.5118C86.386 72.6051 82.5823 72.0301 81.5186 71.885C80.455 71.7399 79.3965 71.5431 78.3329 71.398C78.3075 71.398 78.3126 71.3565 78.3379 71.3565Z" fill="#263238"/>
<path d="M77.7606 75.2836C79.1281 75.4028 80.4906 75.4701 81.853 75.6567C83.2154 75.8432 84.4817 76.1281 85.8238 76.4079C85.9251 76.4079 85.8795 76.4752 85.7783 76.4597C84.4259 76.2369 83.1597 76.1385 81.8074 75.9416C80.4551 75.7447 79.1079 75.4753 77.7555 75.3199C77.7353 75.3147 77.7403 75.2836 77.7606 75.2836Z" fill="#263238"/>
<path d="M76.6718 78.5786C78.7728 78.703 80.8555 79.0502 82.8863 79.6148C82.9876 79.6407 82.9268 79.6977 82.8205 79.677C80.7591 79.2832 79.1485 78.962 76.6718 78.6408C76.6211 78.6304 76.6211 78.5786 76.6718 78.5786Z" fill="#263238"/>
<path d="M75.3651 68.8437C73.3391 69.3204 66.3446 73.807 65.5747 74.5064C65.0176 74.4443 62.6168 74.2992 62.3484 74.3407C62.3383 74.3441 62.3294 74.3507 62.3232 74.3595C62.3169 74.3683 62.3136 74.379 62.3136 74.3899C62.3136 74.4008 62.3169 74.4114 62.3232 74.4203C62.3294 74.4291 62.3383 74.4357 62.3484 74.4391C62.6016 74.5375 64.9872 74.8898 65.5494 74.9572C65.6456 74.9572 73.7392 69.7763 75.4917 68.9214C75.5525 68.8748 75.436 68.8282 75.3651 68.8437Z" fill="#263238"/>
<path d="M53.2568 66.5021L40.9391 69.4915C40.9391 69.4915 44.3781 55.6895 46.5104 51.923C48.9112 47.685 50.5066 49.8507 51.7171 54.3529C52.9276 58.8551 53.2568 66.5021 53.2568 66.5021Z" fill="#2962FF"/>
<path opacity="0.1" d="M53.2568 66.5021L40.9391 69.4915C40.9391 69.4915 44.3781 55.6895 46.5104 51.923C48.9112 47.685 50.5066 49.8507 51.7171 54.3529C52.9276 58.8551 53.2568 66.5021 53.2568 66.5021Z" fill="#0F172A"/>
<path d="M52.3098 64.326C50.6941 64.4917 45.9027 65.6834 45.1126 65.8802C44.6922 65.9787 43.0411 66.4501 42.6258 66.5486C42.5701 66.5486 42.6258 66.6418 42.6511 66.6315C43.4514 66.4449 44.2668 66.3465 45.067 66.1704C45.8673 65.9942 50.7903 64.9528 52.3098 64.3933C52.3164 64.3906 52.322 64.386 52.326 64.38C52.3299 64.374 52.3321 64.3669 52.3321 64.3596C52.3321 64.3524 52.3299 64.3453 52.326 64.3393C52.322 64.3333 52.3164 64.3286 52.3098 64.326Z" fill="#263238"/>
<path d="M44.4592 57.2488C44.4592 57.1919 44.3883 57.1763 44.3731 57.2488C43.9527 58.3783 43.5577 59.5233 43.1829 60.6734C43.2393 60.041 43.3511 59.415 43.5171 58.8031C43.5171 58.8031 43.4867 58.7669 43.4766 58.8031C43.2594 59.5037 43.1301 60.2296 43.0917 60.9636C42.8334 61.7614 42.5852 62.5696 42.3421 63.3727C41.7242 65.445 41.0809 67.476 40.5795 69.5639C40.5743 69.5891 40.5755 69.6152 40.583 69.6398C40.5905 69.6644 40.604 69.6866 40.6224 69.7043C40.6407 69.722 40.6631 69.7346 40.6875 69.7408C40.712 69.7471 40.7376 69.7468 40.7619 69.74C41.1873 69.6209 41.6026 69.4913 42.023 69.3411C42.0635 69.3411 42.0585 69.253 42.023 69.2582C41.6583 69.2996 41.3038 69.3566 40.9442 69.4188C41.5925 67.4552 42.1395 65.4554 42.7321 63.4711C43.3247 61.4868 43.9274 59.3264 44.4592 57.2488Z" fill="#263238"/>
<path d="M53.0288 60.9637C53.0288 60.2798 53.0541 59.5959 53.0288 58.8913C53.0288 58.8913 53.0288 58.8913 53.0035 58.8913C52.9799 59.3921 52.9596 59.8947 52.9427 60.399C52.8161 59.4042 52.6743 58.4095 52.4869 57.4303C52.5527 58.9483 52.7047 60.4611 52.811 61.974C52.9174 63.4868 53.0389 64.9426 53.1706 66.4295C52.8971 66.5435 52.6287 66.6471 52.3501 66.7508C52.3394 66.7542 52.3304 66.7618 52.3252 66.772C52.32 66.7823 52.3189 66.7942 52.3223 66.8051C52.3256 66.8161 52.3331 66.8253 52.3431 66.8307C52.3531 66.836 52.3647 66.8371 52.3755 66.8336C52.6895 66.7767 53.0035 66.7145 53.3226 66.6679C53.3589 66.6653 53.393 66.6491 53.4183 66.6223C53.4435 66.5955 53.4582 66.56 53.4593 66.5228C53.3834 64.6732 53.2466 62.8029 53.0288 60.9637Z" fill="#263238"/>
<path d="M55.6777 53.7104C54.5229 53.7725 51.3827 51.3013 50.3394 48.8714C50.2685 48.7004 51.4587 42.3953 51.5651 41.1C51.5651 40.841 59.213 43.7423 59.213 43.7423C58.6329 45.2955 58.24 46.9153 58.043 48.5657C58.0258 48.738 58.0258 48.9116 58.043 49.0838C58.0454 49.1131 58.0454 49.1426 58.043 49.1719C58.1291 50.1874 57.3744 53.6016 55.6777 53.7104Z" fill="#AD6359"/>
<path d="M52.0666 41.1829C52.1932 43.1413 52.9377 48.6642 57.2479 49.1512C57.5152 49.1824 57.7845 49.191 58.0532 49.1771C58.0559 49.1478 58.0559 49.1183 58.0532 49.089C58.0409 48.9165 58.0409 48.7434 58.0532 48.5709C58.2506 46.9188 58.6435 45.2974 59.2232 43.7423C59.2232 43.7423 53.7684 41.6647 52.0666 41.1829Z" fill="#263238"/>
<path d="M52.3958 30.3289C50.9725 32.9194 50.699 41.2762 52.2539 43.4988C54.5027 46.7161 59.0358 47.9855 61.9278 45.022C64.7287 42.1466 64.8958 31.2563 63.0826 29.1477C60.4134 26.0443 54.4926 26.4951 52.3958 30.3289Z" fill="#AD6359"/>
<path d="M58.894 36.8725C58.894 36.8725 58.8535 36.8725 58.8535 36.9243C58.8535 37.4838 58.7522 38.1315 58.2457 38.2972V38.3283C58.8433 38.2662 58.9649 37.4061 58.894 36.8725Z" fill="#263238"/>
<path d="M58.4129 36.2662C57.5316 36.1626 57.3999 37.9759 58.2103 38.0691C59.0207 38.1624 59.1524 36.3543 58.4129 36.2662Z" fill="#263238"/>
<path d="M62.0495 37.2195C62.0495 37.2195 62.0901 37.2195 62.085 37.2713C62.0293 37.8309 62.0495 38.4837 62.5307 38.7064C62.5307 38.7064 62.5307 38.7427 62.5307 38.7375C61.933 38.6028 61.9027 37.7376 62.0495 37.2195Z" fill="#263238"/>
<path d="M62.5811 36.6702C63.4675 36.6702 63.4016 38.4887 62.5811 38.4835C61.7606 38.4784 61.8366 36.6702 62.5811 36.6702Z" fill="#263238"/>
<path d="M57.7748 35.3855C58.0129 35.3332 58.2479 35.2675 58.4788 35.1886C58.7372 35.158 58.978 35.0394 59.1626 34.8519C59.2092 34.7821 59.2319 34.6986 59.2273 34.6143C59.2228 34.53 59.1911 34.4496 59.1373 34.3856C59.0113 34.2759 58.8592 34.2023 58.6964 34.1723C58.5336 34.1423 58.3659 34.1569 58.2104 34.2146C57.8786 34.2752 57.5807 34.4599 57.3747 34.7327C57.3267 34.7996 57.2994 34.8798 57.2965 34.9628C57.2935 35.0457 57.315 35.1277 57.3581 35.1981C57.4012 35.2684 57.464 35.3239 57.5383 35.3573C57.6126 35.3907 57.695 35.4005 57.7748 35.3855Z" fill="#263238"/>
<path d="M63.3358 35.8103C63.102 35.7441 62.872 35.6646 62.647 35.572C62.3919 35.5196 62.1606 35.3831 61.9885 35.1834C61.9472 35.1109 61.9303 35.0266 61.9403 34.9433C61.9504 34.86 61.9869 34.7823 62.0443 34.7223C62.1776 34.6201 62.3353 34.5562 62.5008 34.5371C62.6664 34.5179 62.834 34.5443 62.9863 34.6135C63.3129 34.7079 63.5941 34.9218 63.7764 35.2145C63.8136 35.2837 63.8304 35.3625 63.8248 35.4413C63.8191 35.52 63.7914 35.5954 63.7448 35.6584C63.6982 35.7214 63.6348 35.7693 63.5622 35.7962C63.4897 35.8232 63.411 35.8281 63.3358 35.8103Z" fill="#263238"/>
<path d="M57.9772 42.043C58.0988 42.1829 58.2153 42.3746 58.4128 42.4056C58.6179 42.4188 58.8234 42.387 59.0155 42.3124C59.0155 42.3124 59.051 42.3124 59.0155 42.3435C58.9288 42.4476 58.8162 42.5256 58.6895 42.5694C58.5629 42.6132 58.427 42.6211 58.2963 42.5922C58.1888 42.5538 58.0943 42.4845 58.0242 42.3926C57.9542 42.3007 57.9115 42.1901 57.9013 42.0741C57.9165 42.0274 57.9621 42.0223 57.9772 42.043Z" fill="#263238"/>
<path d="M58.6812 40.4058C58.8032 40.6387 58.9711 40.8432 59.1742 41.0063C59.3773 41.1695 59.6113 41.2879 59.8613 41.3539C60.081 41.4141 60.3076 41.4437 60.535 41.442H60.6616H60.7831C60.8132 41.438 60.8412 41.4243 60.8631 41.4029C60.8849 41.3814 60.8995 41.3534 60.9047 41.3228V41.2607V41.2089C60.9503 40.7788 60.9604 40.1209 60.9604 40.1209C61.1073 40.2089 61.867 40.639 61.8721 40.4058C61.9706 38.4545 61.8739 36.4981 61.5834 34.5669C61.5834 34.5048 61.4821 34.5151 61.4821 34.5669C61.3808 36.3699 61.5935 38.1936 61.5175 39.9913C61.2468 39.8385 60.9572 39.7235 60.6565 39.6494C60.5957 39.6494 60.6565 40.9239 60.6261 41.1156C60.2778 41.1241 59.9314 41.0606 59.6076 40.9288C59.2838 40.7971 58.9894 40.5998 58.742 40.3488C58.6964 40.3229 58.6508 40.3592 58.6812 40.4058Z" fill="#263238"/>
<path d="M60.302 41.2037C60.046 41.4934 59.7217 41.7111 59.3599 41.8358C59.1621 41.8994 58.9499 41.8994 58.7521 41.8358C58.3216 41.6855 58.3419 41.271 58.4482 40.9239C58.5091 40.743 58.5889 40.5692 58.6863 40.4058C59.1287 40.84 59.6944 41.1193 60.302 41.2037Z" fill="#263238"/>
<path d="M59.3599 41.8357C59.1621 41.8993 58.9499 41.8993 58.7521 41.8357C58.3216 41.6855 58.3419 41.271 58.4482 40.9239C58.6793 40.946 58.896 41.0487 59.0619 41.2146C59.2279 41.3806 59.3331 41.5999 59.3599 41.8357Z" fill="#FF9ABB"/>
<path d="M51.393 37.9449C52.9125 37.7532 54.3712 32.9401 54.3712 32.9401C54.3712 32.9401 54.042 35.0125 54.4319 35.0125C54.8219 35.0125 56.8226 32.422 57.3138 30.4222C58.3278 31.3669 59.4585 32.1716 60.6769 32.8158C62.4141 33.6654 64.2527 33.8053 64.2223 33.4841C64.2223 32.4945 64.0501 30.0336 63.4372 29.2824C62.6061 28.3301 61.5398 27.6241 60.3501 27.2385C59.1605 26.8529 57.8913 26.8019 56.6757 27.0909C53.5253 27.7851 52.4516 29.614 51.778 31.0594C51.1043 32.5049 50.841 38.0122 51.393 37.9449Z" fill="#263238"/>
<path d="M64.2679 31.3133C63.5284 31.0076 59.2334 30.4843 57.1771 31.0387C55.1207 31.593 51.3069 33.8985 51.0993 34.0177C50.8916 34.1369 51.0992 26.7955 56.9846 26.35C63.4524 25.8681 64.2679 31.3133 64.2679 31.3133Z" fill="#2962FF"/>
<path d="M51.4943 33.7743C51.4943 33.7743 56.0172 29.2514 58.2863 28.4069C60.5553 27.5624 65.3771 27.6194 68.0716 29.3757C70.1937 30.7435 64.2223 32.8832 64.2223 32.8832C64.2053 32.6309 64.1315 32.386 64.0068 32.1676C63.882 31.9492 63.7096 31.7633 63.5031 31.6242C62.166 30.8367 59.4157 30.8678 57.8051 31.1631C55.7792 31.531 51.4943 33.7743 51.4943 33.7743Z" fill="#2962FF"/>
<path opacity="0.2" d="M51.4943 33.7743C51.4943 33.7743 56.0172 29.2514 58.2863 28.4069C60.5553 27.5624 65.3771 27.6194 68.0716 29.3757C70.1937 30.7435 64.2223 32.8832 64.2223 32.8832C64.2053 32.6309 64.1315 32.386 64.0068 32.1676C63.882 31.9492 63.7096 31.7633 63.5031 31.6242C62.166 30.8367 59.4157 30.8678 57.8051 31.1631C55.7792 31.531 51.4943 33.7743 51.4943 33.7743Z" fill="#0F172A"/>
<path d="M57.4051 40.1623C56.9566 40.0528 56.5472 39.8169 56.2232 39.4814C55.8992 39.1459 55.6736 38.7242 55.572 38.2642C55.4704 37.8042 55.4969 37.3243 55.6484 36.8789C55.7999 36.4335 56.0705 36.0405 56.4293 35.7444C56.7881 35.4483 57.2209 35.261 57.6785 35.2038C58.1361 35.1465 58.6003 35.2216 59.0183 35.4205C59.4363 35.6194 59.7915 35.9342 60.0435 36.3291C60.2955 36.724 60.4342 37.1833 60.444 37.6548C60.4527 37.9878 60.3969 38.3194 60.2797 38.6303C60.1625 38.9412 59.9863 39.2252 59.7612 39.4661C59.5361 39.7069 59.2666 39.8998 58.9683 40.0335C58.6699 40.1672 58.3487 40.2392 58.023 40.2452C57.8144 40.2451 57.6067 40.2172 57.4051 40.1623ZM58.4535 35.572C58.2876 35.5317 58.1175 35.5126 57.947 35.5151C57.4023 35.5206 56.8801 35.7387 56.4873 36.1248C56.0945 36.5109 55.8606 37.0359 55.8335 37.5924C55.8064 38.149 55.988 38.6951 56.3414 39.1193C56.6947 39.5435 57.193 39.8136 57.7345 39.8745C58.276 39.9355 58.8198 39.7826 59.2548 39.4471C59.6899 39.1117 59.9832 38.619 60.075 38.0697C60.1668 37.5204 60.0501 36.956 59.7487 36.4918C59.4473 36.0275 58.984 35.6986 58.4535 35.572Z" fill="#2962FF"/>
<path d="M63.0371 40.784C62.1204 40.5664 61.5177 39.4007 61.6494 38.0951C61.7061 37.4658 61.9561 36.871 62.3635 36.3958C62.5221 36.1756 62.7346 36.0021 62.9797 35.8928C63.2247 35.7834 63.4937 35.7422 63.7593 35.7732C64.0249 35.8042 64.2779 35.9064 64.4925 36.0694C64.7072 36.2323 64.8761 36.4504 64.982 36.7015C65.2699 37.2574 65.3831 37.8906 65.3062 38.5148C65.1492 39.8981 64.2071 40.9291 63.1992 40.8151C63.1444 40.8098 63.0901 40.7994 63.0371 40.784ZM63.8425 36.1523C63.8004 36.1469 63.7579 36.1469 63.7158 36.1523C63.5037 36.1399 63.2918 36.1806 63.0985 36.2709C62.9052 36.3612 62.7364 36.4983 62.6066 36.6704C62.2499 37.0944 62.0305 37.6211 61.9786 38.178C61.8469 39.3748 62.404 40.4317 63.2347 40.525C64.0653 40.6182 64.8402 39.7219 64.977 38.5252C65.0495 37.9709 64.9503 37.4074 64.6933 36.9139C64.6136 36.7317 64.4963 36.5692 64.3494 36.4378C64.2026 36.3063 64.0296 36.2089 63.8425 36.1523Z" fill="#2962FF"/>
<path d="M60.3223 37.9346L60.14 37.6548C60.5452 37.375 61.4569 37.0486 61.9785 37.774L61.7152 37.976C61.2442 37.3232 60.3578 37.9087 60.3223 37.9346Z" fill="#2962FF"/>
<path d="M49.3113 37.3127L49.0378 37.1262C49.1239 36.9967 49.8988 35.8465 50.6433 35.8102C51.3879 35.774 55.7082 36.7065 55.8753 36.748L55.8095 37.0796C54.5635 36.8102 51.2005 36.1211 50.6585 36.147C50.1166 36.1729 49.5189 36.9967 49.3113 37.3127Z" fill="#2962FF"/>
<path d="M52.6793 37.2507C52.6793 37.2507 51.3979 34.2821 50.1165 34.7017C48.8351 35.1214 49.448 39.1677 50.7091 39.9603C50.8638 40.0727 51.0391 40.152 51.2244 40.1934C51.4098 40.2347 51.6014 40.2373 51.7878 40.201C51.9742 40.1647 52.1515 40.0903 52.3091 39.9822C52.4666 39.874 52.6012 39.7344 52.7047 39.5718L52.6793 37.2507Z" fill="#AD6359"/>
<path d="M50.3242 35.8569V35.8932C51.2005 36.4786 51.5246 37.4837 51.6968 38.4837C51.6595 38.3756 51.6 38.2771 51.5221 38.1947C51.4443 38.1123 51.35 38.0481 51.2458 38.0063C51.1415 37.9645 51.0296 37.9462 50.9178 37.9526C50.806 37.9589 50.6968 37.9899 50.5977 38.0433C50.5674 38.0433 50.5977 38.1003 50.5977 38.1003C50.7786 38.0809 50.9607 38.1207 51.1181 38.2137C51.2755 38.3068 51.4001 38.4484 51.474 38.6184C51.6035 38.8932 51.7037 39.1816 51.7728 39.4784C51.8032 39.5768 51.9653 39.5613 51.9501 39.4784C52.2134 38.1676 51.6006 36.2455 50.3242 35.8569Z" fill="#263238"/>
<path d="M184.598 176.234C200.345 176.234 209.462 187.419 209.462 200.584C209.462 213.749 201.014 224.68 185.657 224.68C168.664 224.68 160.551 210.858 160.551 200.465C160.551 190.072 168.664 176.234 184.598 176.234Z" fill="#37474F"/>
<path d="M182.178 176.234C197.144 176.234 205.815 187.419 205.815 200.584C205.815 213.749 197.782 224.68 183.185 224.68C167.034 224.68 159.32 210.858 159.32 200.465C159.32 190.072 167.034 176.234 182.178 176.234Z" fill="#263238"/>
<path d="M182.329 185.689C191.446 185.689 196.734 192.507 196.734 200.527C196.734 208.547 191.841 215.205 182.942 215.205C173.101 215.205 168.401 206.78 168.401 200.444C168.401 194.108 173.101 185.689 182.329 185.689Z" fill="#C7C7C7"/>
<path d="M70.5075 215.873C89.9262 215.873 96.394 205.433 96.394 192.859C96.394 180.285 87.3684 169.587 69.7326 169.587C81.245 169.587 87.9103 180.275 87.9103 192.859C87.9103 205.444 81.7312 215.873 70.5075 215.873Z" fill="#37474F"/>
<path d="M69.7326 169.602C81.245 169.602 87.9104 180.296 87.9104 192.87C87.9104 205.444 81.7363 215.873 70.5076 215.873C58.0835 215.873 52.1526 202.662 52.1526 192.73C52.1526 182.798 58.0835 169.602 69.7326 169.602Z" fill="#263238"/>
<path d="M60.6414 192.745C60.6414 202.346 58.2559 215.023 69.3175 215.847H69.7075H70.0367H70.5078C81.7315 215.847 87.9106 205.407 87.9106 192.833C87.9106 180.259 81.2452 169.561 69.7328 169.561H69.1149H68.8313C68.654 169.561 68.4717 169.587 68.2944 169.602C58.3065 170.742 60.6414 183.233 60.6414 192.745Z" fill="#263238"/>
<path d="M68.9123 178.643C75.3092 178.643 79.0167 185.16 79.0167 192.823C79.0167 200.486 75.5827 206.848 69.3429 206.848C62.4344 206.848 59.1372 198.797 59.1372 192.745C59.1372 186.694 62.4395 178.643 68.9123 178.643Z" fill="#C7C7C7"/>
<path d="M159.127 121.238H152.933L148.689 114.866H155.946L159.127 121.238Z" fill="#2962FF"/>
<path d="M148.689 114.866L151.175 118.596L152.933 121.238H159.127L157.451 117.881L155.941 114.866H148.689Z" fill="#2962FF"/>
<path opacity="0.1" d="M148.689 114.866L151.175 118.596L157.451 117.881L155.941 114.866H148.689Z" fill="#0F172A"/>
<path d="M174.18 168.794L168.148 170.214L162.617 164.971L169.688 163.313L174.18 168.794Z" fill="#2962FF"/>
<path d="M162.617 164.971L165.853 168.038L168.143 170.214L174.185 168.794L171.815 165.908L169.688 163.313L162.617 164.971Z" fill="#2962FF"/>
<path opacity="0.1" d="M162.617 164.971L165.853 168.038L171.815 165.908L169.688 163.313L162.617 164.971Z" fill="#0F172A"/>
<path d="M84.9071 187.606L86.6392 191.528C86.6392 191.528 133.474 195.191 137.921 194.512C141.641 190.03 144.776 185.071 147.245 179.762H126.059C122.905 179.797 119.785 179.088 116.942 177.689L114.207 177.223L109.279 179.741L103.895 187.585L88.9285 187.305L84.9071 187.606Z" fill="#455A64"/>
<path d="M109.269 179.762C109.269 179.762 121.263 187.305 144.642 184.746C145.508 183.233 146.389 181.57 147.245 179.762H126.059C122.905 179.797 119.785 179.088 116.942 177.689L114.207 177.223L109.269 179.762Z" fill="#37474F"/>
<path d="M208.094 179.342L202.229 182.492C202.229 182.492 185.257 179.342 174.373 181.725C163.488 184.109 160.551 190.056 160.551 190.056H155.055C155.055 190.056 159.776 172.902 167.788 166.654C175.801 160.406 188.666 161.826 195.782 165.748C202.898 169.67 208.094 179.342 208.094 179.342Z" fill="#2962FF"/>
<path opacity="0.1" d="M201.616 181.306C200.483 180.092 199.253 178.976 197.939 177.969C196.638 176.936 195.263 176.002 193.827 175.177C191.039 173.597 187.983 172.572 184.821 172.156C178.632 171.379 172.159 173.224 167.601 178.088C165.038 180.845 163.215 184.223 161.483 187.642C161.483 187.694 161.528 187.735 161.553 187.683C163.021 184.682 164.874 181.894 167.064 179.394C169.174 177.037 171.8 175.226 174.727 174.11C180.567 171.918 186.908 172.757 192.5 175.405C194.104 176.153 195.652 177.019 197.134 177.995C198.653 179.031 200.092 180.187 201.515 181.363C201.524 181.372 201.536 181.377 201.549 181.379C201.562 181.381 201.575 181.378 201.586 181.372C201.597 181.366 201.606 181.356 201.612 181.344C201.617 181.332 201.619 181.319 201.616 181.306Z" fill="#0F172A"/>
<path d="M120.629 146.718V144.599L67.6562 146.345V151.111C67.6562 151.111 52.3097 168.442 50.7903 186.456L103.91 187.606L109.294 179.762L114.222 177.244L116.957 177.71V176.498L114.861 173.975L114.769 166.504C113.97 165.362 113.401 164.068 113.095 162.698C112.79 161.328 112.755 159.909 112.992 158.525C113.559 154.536 120.629 146.718 120.629 146.718Z" fill="#2962FF"/>
<path d="M98.9366 185.083C98.3846 186.119 90.3264 187.606 75.0508 188.025C61.2998 188.404 51.0283 188.093 50.2078 187.186C49.3872 186.279 51.4385 170.245 60.7477 161.561C70.0569 152.878 83.2609 151.63 91.9522 156.81C99.5951 161.354 105.298 172.902 98.9366 185.083Z" fill="#2962FF"/>
<path opacity="0.1" d="M101.53 169.903C100.713 166.106 98.8295 162.636 96.1105 159.919C93.3834 157.125 89.9779 155.124 86.2442 154.122C82.0814 153.059 77.7215 153.107 73.5821 154.261C71.5104 154.817 69.5072 155.611 67.6106 156.629C65.6089 157.731 63.7219 159.038 61.9785 160.53C61.5125 160.924 61.0415 161.318 60.5806 161.722C60.5401 161.753 60.5806 161.81 60.6414 161.779C62.3946 160.202 64.2926 158.802 66.3089 157.598C68.1488 156.523 70.1009 155.663 72.1284 155.033C76.1482 153.747 80.4171 153.502 84.5525 154.318C88.2901 155.087 91.754 156.877 94.5758 159.499C97.2949 162.003 99.2947 165.219 100.36 168.799C101.626 173.161 101.211 177.964 99.9496 182.269C99.7825 182.85 99.6052 183.42 99.4128 183.99C99.4128 184.052 99.4837 184.072 99.5039 184.015C101.211 179.544 102.482 174.726 101.53 169.903Z" fill="#0F172A"/>
<path opacity="0.1" d="M109.269 179.762L114.197 177.244L116.932 177.71V176.498L114.835 173.98L114.744 166.514C113.943 165.373 113.373 164.079 113.068 162.709C112.763 161.338 112.728 159.92 112.966 158.536C113.559 154.541 120.63 146.723 120.63 146.723H118.578C118.578 146.723 107.436 152.604 104.903 157.458C102.371 162.313 101.606 173.695 109.269 179.762Z" fill="#0F172A"/>
<path d="M64.7136 189.678C55.4854 189.678 50.6029 189.388 48.1262 188.383L49.2759 185.425C52.173 186.601 61.2442 186.58 75.8411 186.409C86.6241 186.28 94.581 185.238 99.5445 183.301L100.654 186.274C95.285 188.347 87.1813 189.445 75.8765 189.58C71.5866 189.642 67.8893 189.678 64.7136 189.678Z" fill="#DBDBDB"/>
<path d="M137.217 117.809C137.126 118.021 124.894 120.327 124.894 120.327C124.894 120.327 122.868 118.928 124.119 117.156L136.386 114.446C136.859 114.842 137.195 115.382 137.344 115.987C137.494 116.593 137.449 117.231 137.217 117.809Z" fill="#263238"/>
<path d="M162.89 101.634V116.477C162.89 116.477 155.055 115.778 152.968 115.705C150.882 115.633 141.608 116.86 141.608 116.86L140.889 113.534C140.889 113.534 148.035 110.98 151.074 108.985C154.113 106.991 157.613 103.178 159.492 102.333C160.557 101.835 161.72 101.596 162.89 101.634Z" fill="#2962FF"/>
<path d="M141.638 113.115C142.104 113.605 142.456 114.196 142.666 114.845C142.877 115.494 142.941 116.183 142.854 116.861C142.854 116.861 137.014 117.954 136.943 117.954C136.99 117.248 136.82 116.545 136.456 115.943C136.093 115.341 135.555 114.87 134.917 114.596L141.638 113.115Z" fill="#DBDBDB"/>
<path d="M162.967 116.477C165.087 116.477 166.806 113.156 166.806 109.058C166.806 104.961 165.087 101.639 162.967 101.639C160.846 101.639 159.127 104.961 159.127 109.058C159.127 113.156 160.846 116.477 162.967 116.477Z" fill="#DBDBDB"/>
<path d="M159.917 109.058C159.917 112.685 161.391 115.674 163.205 115.674C165.018 115.674 166.492 112.711 166.492 109.058C166.492 105.406 165.018 102.437 163.205 102.437C161.391 102.437 159.917 105.4 159.917 109.058Z" fill="white"/>
<path d="M120.629 144.599C120.629 144.599 120.726 135.548 120.381 135.196C120.037 134.843 67.3167 135.03 65.7415 135.196C64.1664 135.362 64.3031 145.905 64.4399 146.397C64.5766 146.889 119.262 144.718 120.629 144.599Z" fill="#37474F"/>
<path d="M125.309 135.289C125.152 135.149 118.467 135.118 118.102 135.118C117.737 135.118 117.869 144.765 118.102 144.749C118.335 144.734 125.355 144.692 125.583 144.48C125.811 144.268 125.654 135.595 125.309 135.289Z" fill="#455A64"/>
<path d="M88.3715 134.771C88.1946 134.917 88.0743 135.123 88.0321 135.351C87.9794 135.576 87.9422 135.805 87.9207 136.035C87.865 136.496 87.8498 136.962 87.8295 137.429C87.8295 138.361 87.8295 139.299 87.8295 140.237C87.8295 141.175 87.8295 142.112 87.8852 143.045C87.9016 143.506 87.9541 143.965 88.0422 144.418C88.0808 144.642 88.1526 144.858 88.255 145.06C88.3023 145.163 88.3729 145.253 88.461 145.322C88.5491 145.392 88.6521 145.439 88.7614 145.459C88.6403 145.464 88.5199 145.437 88.4118 145.38C88.3037 145.324 88.2114 145.241 88.1435 145.138C87.9982 144.941 87.8837 144.723 87.8042 144.49C87.6508 144.035 87.5438 143.564 87.4851 143.086C87.3689 142.141 87.3131 141.189 87.318 140.237C87.308 139.288 87.3537 138.34 87.4547 137.398C87.5028 136.921 87.5841 136.448 87.6978 135.983C87.758 135.749 87.8359 135.521 87.9308 135.299C88.0048 135.071 88.1629 134.882 88.3715 134.771Z" fill="#455A64"/>
<path d="M61.2339 135.103H111.877V102.898H61.2339L61.2339 135.103Z" fill="#37474F"/>
<path d="M61.2339 135.103H97.8224V102.898H61.2339L61.2339 135.103Z" fill="#263238"/>
<path d="M124.225 78.2058H108.453L96.1053 102.898H111.877L124.225 78.2058Z" fill="#37474F"/>
<path d="M110.16 78.2058H108.453L96.1053 102.898H97.8122L110.16 78.2058Z" fill="#263238"/>
<path d="M68.4464 102.893H65.3112V135.113H68.4464V102.893Z" fill="#2962FF"/>
<path d="M91.4864 102.893H88.3513V135.113H91.4864V102.893Z" fill="#2962FF"/>
<path d="M69.9252 113.363V109.7C69.9252 109.61 69.9604 109.523 70.0231 109.459C70.0858 109.395 70.1708 109.359 70.2594 109.359H72.2449C72.3271 109.369 72.4028 109.41 72.4576 109.473C72.5125 109.537 72.5428 109.618 72.5428 109.703C72.5428 109.788 72.5125 109.87 72.4576 109.933C72.4028 109.997 72.3271 110.037 72.2449 110.048H70.5988V111.182H72.0119C72.0997 111.185 72.1833 111.222 72.2454 111.285C72.3076 111.349 72.3436 111.434 72.3462 111.524C72.3468 111.57 72.3387 111.615 72.3223 111.657C72.3058 111.7 72.2814 111.738 72.2504 111.771C72.2193 111.804 72.1823 111.83 72.1414 111.848C72.1004 111.866 72.0564 111.876 72.0119 111.876H70.5988V113.363C70.5975 113.455 70.5611 113.541 70.4976 113.605C70.4341 113.669 70.3486 113.705 70.2594 113.705C70.2155 113.705 70.1721 113.696 70.1315 113.679C70.091 113.662 70.0541 113.637 70.0231 113.605C69.992 113.573 69.9674 113.536 69.9506 113.494C69.9338 113.453 69.9252 113.408 69.9252 113.363Z" fill="white"/>
<path d="M76.8337 109.897C77.2274 110.322 77.4468 110.885 77.4468 111.47C77.4468 112.055 77.2274 112.618 76.8337 113.042C76.6492 113.249 76.4249 113.415 76.1747 113.529C75.9245 113.643 75.654 113.703 75.3801 113.705C75.1009 113.704 74.8249 113.645 74.5689 113.531C74.3128 113.417 74.0822 113.25 73.891 113.042C73.5063 112.613 73.2928 112.052 73.2928 111.47C73.2928 110.888 73.5063 110.326 73.891 109.897C74.0811 109.688 74.3115 109.521 74.5678 109.407C74.824 109.292 75.1006 109.234 75.3801 109.234C75.6542 109.235 75.925 109.295 76.1753 109.409C76.4256 109.523 76.6498 109.69 76.8337 109.897ZM76.7527 111.452C76.7535 111.049 76.6072 110.661 76.3424 110.364C76.2194 110.225 76.0694 110.114 75.9019 110.038C75.7344 109.962 75.5532 109.922 75.37 109.922C75.1867 109.922 75.0055 109.962 74.838 110.038C74.6706 110.114 74.5205 110.225 74.3975 110.364C74.1292 110.659 73.9807 111.048 73.9822 111.452C73.9797 111.852 74.1285 112.238 74.3975 112.529C74.5187 112.671 74.6682 112.785 74.836 112.863C75.0037 112.941 75.1858 112.981 75.37 112.981C75.5542 112.981 75.7363 112.941 75.904 112.863C76.0717 112.785 76.2212 112.671 76.3424 112.529C76.6048 112.243 76.7513 111.865 76.7527 111.472V111.452Z" fill="white"/>
<path d="M81.9392 109.897C82.3329 110.322 82.5523 110.885 82.5523 111.47C82.5523 112.055 82.3329 112.618 81.9392 113.042C81.7548 113.249 81.5304 113.415 81.2802 113.529C81.0301 113.643 80.7595 113.703 80.4856 113.705C80.2064 113.704 79.9304 113.645 79.6744 113.531C79.4184 113.417 79.1877 113.25 78.9965 113.042C78.6118 112.613 78.3983 112.052 78.3983 111.47C78.3983 110.888 78.6118 110.326 78.9965 109.897C79.1866 109.688 79.417 109.521 79.6733 109.407C79.9295 109.292 80.2061 109.234 80.4856 109.234C80.7597 109.235 81.0305 109.295 81.2808 109.409C81.5311 109.523 81.7553 109.69 81.9392 109.897ZM81.8582 111.452C81.859 111.049 81.7127 110.661 81.4479 110.364C81.325 110.225 81.1749 110.114 81.0074 110.038C80.8399 109.962 80.6587 109.922 80.4755 109.922C80.2922 109.922 80.111 109.962 79.9436 110.038C79.7761 110.114 79.626 110.225 79.503 110.364C79.2347 110.659 79.0862 111.048 79.0877 111.452C79.0852 111.852 79.234 112.238 79.503 112.529C79.6243 112.671 79.7737 112.785 79.9415 112.863C80.1092 112.941 80.2913 112.981 80.4755 112.981C80.6597 112.981 80.8418 112.941 81.0095 112.863C81.1772 112.785 81.3267 112.671 81.4479 112.529C81.7103 112.243 81.8569 111.865 81.8582 111.472V111.452Z" fill="white"/>
<path d="M83.5699 113.363V109.701C83.5692 109.655 83.5774 109.611 83.594 109.569C83.6105 109.527 83.6351 109.489 83.6663 109.457C83.6975 109.425 83.7346 109.4 83.7755 109.383C83.8163 109.366 83.8601 109.358 83.9042 109.359H84.6184C85.1639 109.386 85.6783 109.627 86.055 110.031C86.4317 110.436 86.6418 110.973 86.6418 111.532C86.6418 112.091 86.4317 112.628 86.055 113.033C85.6783 113.437 85.1639 113.678 84.6184 113.705H83.9042C83.8156 113.705 83.7305 113.669 83.6678 113.605C83.6052 113.541 83.5699 113.454 83.5699 113.363ZM84.2436 113.016H84.6184C84.9884 112.994 85.3361 112.828 85.5903 112.552C85.8446 112.276 85.9862 111.911 85.9862 111.532C85.9862 111.153 85.8446 110.788 85.5903 110.512C85.3361 110.236 84.9884 110.07 84.6184 110.048H84.2436V113.016Z" fill="white"/>
<path d="M77.4516 116.446H76.7729V118.777C76.7779 118.812 76.7755 118.847 76.7659 118.881C76.7564 118.914 76.7399 118.945 76.7175 118.972C76.6952 118.998 76.6675 119.02 76.6364 119.034C76.6053 119.049 76.5716 119.056 76.5374 119.056C76.5032 119.056 76.4694 119.049 76.4383 119.034C76.4072 119.02 76.3796 118.998 76.3572 118.972C76.3349 118.945 76.3184 118.914 76.3088 118.881C76.2993 118.847 76.2969 118.812 76.3018 118.777V116.446H75.608C75.5452 116.445 75.4854 116.419 75.4411 116.373C75.3967 116.328 75.3712 116.267 75.3699 116.202C75.3699 116.138 75.395 116.076 75.4396 116.03C75.4843 115.985 75.5448 115.959 75.608 115.959H77.4313C77.4936 115.96 77.5528 115.987 77.5964 116.032C77.6399 116.078 77.6643 116.139 77.6643 116.202C77.6646 116.263 77.6431 116.321 77.6037 116.366C77.5644 116.411 77.5102 116.44 77.4516 116.446Z" fill="white"/>
<path d="M80.5107 116.343C80.7891 116.639 80.9435 117.035 80.9412 117.446C80.9463 117.858 80.7914 118.255 80.5107 118.55C80.3826 118.695 80.2266 118.812 80.0523 118.893C79.878 118.974 79.6892 119.018 79.4978 119.021C79.3009 119.019 79.1063 118.977 78.9261 118.896C78.7458 118.815 78.5836 118.697 78.4493 118.55C78.1723 118.253 78.0212 117.856 78.029 117.446C78.0255 117.037 78.176 116.642 78.4493 116.343C78.5833 116.195 78.7455 116.078 78.926 115.997C79.1064 115.917 79.301 115.876 79.4978 115.876C79.6891 115.877 79.8781 115.919 80.0526 115.999C80.2271 116.08 80.3832 116.197 80.5107 116.343ZM80.455 117.446C80.4565 117.164 80.3534 116.892 80.1663 116.684C80.0811 116.588 79.9772 116.51 79.8613 116.457C79.7454 116.403 79.6199 116.375 79.4927 116.374C79.3623 116.373 79.2332 116.401 79.1137 116.454C78.9942 116.508 78.8869 116.586 78.7988 116.684C78.613 116.893 78.51 117.164 78.51 117.446C78.51 117.728 78.613 118 78.7988 118.208C78.8869 118.306 78.9942 118.384 79.1137 118.438C79.2332 118.492 79.3623 118.519 79.4927 118.518C79.6199 118.517 79.7454 118.489 79.8613 118.435C79.9772 118.382 80.0811 118.304 80.1663 118.208C80.3567 117.998 80.4602 117.722 80.455 117.436V117.446Z" fill="white"/>
<path d="M69.9353 124.57C70.1773 123.417 70.7916 122.382 71.6791 121.63C72.5667 120.878 73.6759 120.453 74.828 120.425C75.7211 120.403 76.5893 120.727 77.2591 121.332C77.3171 121.394 77.3621 121.467 77.3914 121.548C77.4206 121.629 77.4335 121.714 77.4293 121.8C77.425 121.886 77.4037 121.97 77.3666 122.047C77.3295 122.124 77.2774 122.193 77.2135 122.249C77.1051 122.386 76.9493 122.474 76.7785 122.496C76.6078 122.519 76.4352 122.473 76.2968 122.368C75.825 121.95 75.219 121.725 74.595 121.736C73.7916 121.747 73.0175 122.046 72.407 122.58C71.7946 123.09 71.3769 123.803 71.2269 124.596C71.1588 124.947 71.169 125.309 71.2567 125.655C71.3444 126.001 71.5073 126.323 71.7334 126.596C71.9689 126.872 72.2614 127.091 72.5898 127.238C72.9182 127.385 73.2744 127.456 73.6327 127.445C74.2053 127.437 74.7664 127.28 75.2636 126.989L75.5421 125.404H73.9214C73.8422 125.407 73.7634 125.39 73.6915 125.356C73.6196 125.322 73.5564 125.272 73.5071 125.208C73.4579 125.145 73.4239 125.07 73.4078 124.991C73.3918 124.911 73.3942 124.829 73.4149 124.751C73.4475 124.569 73.5403 124.405 73.6778 124.285C73.8153 124.165 73.989 124.097 74.1695 124.093H76.4183C76.5006 124.085 76.5835 124.097 76.66 124.129C76.7365 124.161 76.8041 124.212 76.8571 124.277C76.91 124.342 76.9466 124.419 76.9637 124.501C76.9809 124.584 76.9779 124.67 76.9552 124.751L76.5095 127.342C76.4956 127.402 76.4769 127.461 76.4538 127.518L76.4183 127.59C76.3579 127.7 76.2729 127.795 76.1702 127.865C75.367 128.439 74.4147 128.754 73.4351 128.772C72.9126 128.805 72.3896 128.713 71.9077 128.504C71.4258 128.294 70.9981 127.973 70.6586 127.565C70.319 127.158 70.0769 126.675 69.9514 126.155C69.8258 125.635 69.8203 125.092 69.9353 124.57Z" fill="white"/>
<path d="M79.66 127.523C79.3609 127.107 79.1512 126.631 79.0447 126.127C78.9382 125.622 78.9373 125.101 79.0421 124.596C79.2528 123.46 79.8265 122.429 80.673 121.663C81.48 120.892 82.5365 120.451 83.641 120.425C84.128 120.416 84.6104 120.524 85.0499 120.739C85.4895 120.953 85.8741 121.27 86.1734 121.663C86.4663 122.083 86.671 122.56 86.7748 123.065C86.8785 123.57 86.879 124.091 86.7761 124.596C86.5763 125.731 86.0048 126.764 85.1553 127.523C84.3482 128.294 83.2918 128.735 82.1873 128.761C81.7005 128.773 81.2179 128.667 80.7788 128.451C80.3396 128.236 79.9563 127.918 79.66 127.523ZM80.3336 124.596C80.2623 124.946 80.2628 125.308 80.3351 125.659C80.4075 126.009 80.5501 126.341 80.754 126.632C80.9524 126.892 81.2071 127.101 81.498 127.243C81.7889 127.385 82.1081 127.456 82.4305 127.45C83.1569 127.425 83.8505 127.135 84.3855 126.632C84.9679 126.098 85.3614 125.382 85.5048 124.596C85.5779 124.247 85.5782 123.886 85.5057 123.537C85.4333 123.188 85.2897 122.858 85.0844 122.57C84.8871 122.308 84.6327 122.098 84.3417 121.955C84.0506 121.812 83.7308 121.74 83.408 121.746C82.6796 121.766 81.9839 122.06 81.4529 122.57C80.878 123.103 80.4902 123.815 80.3488 124.596H80.3336Z" fill="white"/>
<path d="M73.5161 117.342H69.9252V117.835H73.5161V117.342Z" fill="white"/>
<path d="M86.7405 117.342H83.1495V117.835H86.7405V117.342Z" fill="white"/>
<path d="M164.202 121.238C165.479 123.15 170.589 149.148 171.592 150.454C172.595 151.759 174.514 151.852 174.514 151.852L177.918 160.437C177.918 160.437 169.525 163.147 164.866 167.064C158.818 172.13 153.252 188.932 153.252 188.932C152.34 189.585 141.026 194.346 137.921 194.533C137.921 194.533 152.351 178.327 153.526 155.899C153.981 147.205 148.76 134.973 148.415 128.911C148.05 122.425 149.965 121.259 153.343 121.259L164.202 121.238Z" fill="#2962FF"/>
<path d="M137.227 196.398L134.968 194.211C147.63 180.503 152.3 158.904 151.93 153.008C151.738 149.982 150.79 146.604 149.783 143.029C148.709 139.211 147.493 134.885 146.977 130.186C146.47 125.823 146.977 123.005 148.43 121.321C149.884 119.637 151.879 119.643 153.206 119.643H165.256V122.829H153.201C152.042 122.829 151.251 122.87 150.75 123.445C150.249 124.021 149.595 125.518 150.071 129.833C150.578 134.263 151.687 138.273 152.776 142.149C153.829 145.894 154.827 149.438 155.035 152.8C155.43 159.08 150.568 181.995 137.227 196.398Z" fill="#DBDBDB"/>
<path d="M171.653 157.567C172.362 160.235 174.595 161.94 176.647 161.37C178.698 160.8 179.777 158.173 179.063 155.505C178.348 152.837 176.12 151.127 174.069 151.697C172.017 152.267 170.939 154.894 171.653 157.567Z" fill="#DBDBDB"/>
<path d="M172.412 157.354C173.051 159.738 174.98 161.271 176.733 160.784C178.485 160.297 179.387 157.971 178.759 155.603C178.131 153.236 176.191 151.687 174.443 152.174C172.696 152.661 171.779 154.971 172.412 157.354Z" fill="white"/>
<path opacity="0.1" d="M162.693 157.132C162.131 154.448 161.523 151.77 160.996 149.076C160.47 146.381 159.983 143.682 159.573 140.973C159.173 138.449 158.743 135.9 158.586 133.346C158.428 130.678 158.586 127.984 159.852 125.575C159.854 125.57 159.856 125.565 159.857 125.559C159.857 125.554 159.857 125.548 159.856 125.543C159.854 125.538 159.852 125.533 159.849 125.529C159.845 125.524 159.841 125.521 159.837 125.518C159.832 125.515 159.827 125.513 159.821 125.513C159.816 125.512 159.811 125.512 159.806 125.514C159.8 125.515 159.796 125.518 159.791 125.521C159.787 125.525 159.783 125.529 159.781 125.533C158.479 127.476 158.054 129.808 157.983 132.124C157.989 134.679 158.21 137.228 158.641 139.745C159.38 145.267 160.395 150.747 161.68 156.163C162.415 159.225 163.362 162.235 164.375 165.209C164.378 165.218 164.385 165.226 164.394 165.231C164.403 165.235 164.413 165.236 164.423 165.232C164.432 165.229 164.44 165.222 164.444 165.212C164.448 165.203 164.449 165.193 164.446 165.183C163.841 162.51 163.257 159.826 162.693 157.132Z" fill="#0F172A"/>
</g>
</svg>
