<svg width="215" height="228" viewBox="0 0 215 228" fill="none" xmlns="http://www.w3.org/2000/svg">
<g opacity="0.3">
<path d="M50.2861 9.31H0.701294V120.187H50.2861V9.31Z" fill="white"/>
<path d="M53.3302 123.295H-2.33243V6.20148H53.3302V123.295ZM3.74539 117.078H47.2524V12.4186H3.74539V117.078Z" fill="#EBEBEB"/>
<path d="M50.2861 62.9999H0.701294V66.1396H50.2861V62.9999Z" fill="#EBEBEB"/>
<path d="M50.2861 39.5925H0.701294V42.7322H50.2861V39.5925Z" fill="#EBEBEB"/>
<path d="M35.755 15.2527V63.9222H38.5407V15.2527H35.755Z" fill="#EBEBEB"/>
<path d="M24.106 15.2527L24.106 63.9222H26.8917L26.8917 15.2527H24.106Z" fill="#EBEBEB"/>
<path d="M12.457 15.2527L12.457 63.9222H15.2427L15.2427 15.2527H12.457Z" fill="#EBEBEB"/>
<path d="M55.9334 5.6886H-4.93591V17.0555H55.9334V5.6886Z" fill="#EBEBEB"/>
<path d="M55.9334 5.6886H-4.93591V13.6154H55.9334V5.6886Z" fill="#DBDBDB"/>
<path d="M59.7625 0H-8.76996V11.3669H59.7625V0Z" fill="#EBEBEB"/>
<path d="M72.9412 157.691L79.7079 157.546L83.0405 157.489C84.1497 157.463 85.2488 157.489 86.3529 157.458L86.1301 157.691L86.0997 151.894L86.3529 152.153L79.6319 152.148C77.3983 152.148 75.1647 152.085 72.926 152.06L73.0679 151.92C73.0679 152.868 73.0223 153.821 72.9969 154.79L72.9412 157.691ZM72.9412 157.691L72.8703 154.821C72.8703 153.857 72.8146 152.878 72.8045 151.894V151.754H72.9412C75.1799 151.728 77.4135 151.671 79.6471 151.666L86.3529 151.635H86.6062V151.894V157.691V157.924H86.3783C85.2488 157.924 84.1143 157.924 82.9899 157.893L79.6167 157.836L72.9412 157.691Z" fill="#EBEBEB"/>
<path d="M80.4219 165.002L87.1885 164.857L90.5212 164.8C91.6304 164.774 92.7295 164.8 93.8336 164.769L93.6108 165.002L93.5854 159.204L93.8336 159.463L87.1278 159.432C84.8942 159.432 82.6606 159.37 80.4219 159.344L80.5637 159.204C80.5637 160.152 80.5181 161.106 80.4979 162.074L80.4219 165.002ZM80.4219 165.002L80.351 162.131C80.351 161.168 80.2953 160.189 80.2852 159.204V159.064H80.4219C82.6606 159.038 84.8942 158.981 87.1278 158.976L93.8336 158.945H94.0919V159.204L94.0666 165.002V165.235H93.8134C92.6839 165.235 91.5544 165.235 90.425 165.204L87.0518 165.147L80.4219 165.002Z" fill="#EBEBEB"/>
<path d="M65.4504 165.002L72.217 164.857L75.5497 164.8C76.6538 164.774 77.758 164.8 78.8621 164.769L78.6393 165.002L78.619 159.204L78.8723 159.463L72.1664 159.432C69.9328 159.432 67.6941 159.37 65.4605 159.344L65.5973 159.204C65.5973 160.152 65.5568 161.106 65.5314 162.074L65.4504 165.002ZM65.4504 165.002L65.3795 162.131C65.3542 161.168 65.3238 160.189 65.3137 159.204V159.064H65.4504C67.684 159.038 69.9227 158.981 72.1563 158.976L78.8621 158.945H79.1154V159.204L79.1255 165.002V165.235H78.9026C77.7732 165.235 76.6387 165.235 75.5143 165.204L72.1411 165.147L65.4504 165.002Z" fill="#EBEBEB"/>
<path d="M80.4219 8.56924L87.1885 8.42417L90.5212 8.36718C91.6304 8.36718 92.7295 8.36718 93.8336 8.33609L93.6108 8.56924L93.5854 2.7718L93.8336 3.03085L87.1278 2.99458C84.8942 2.99458 82.6606 2.93759 80.4219 2.91169L80.5637 2.7718C80.5637 3.71991 80.5181 4.67319 80.4979 5.63684L80.4219 8.56924ZM80.4219 8.56924L80.351 5.69902C80.351 4.73019 80.2953 3.75617 80.2852 2.7718V2.63192H80.4219C82.6606 2.63192 84.8942 2.5542 87.1278 2.54902L93.8134 2.51276H94.0717V2.7718L94.0463 8.56924V8.80238H93.8134C92.6839 8.80238 91.5544 8.80238 90.425 8.77647L87.0518 8.71948L80.4219 8.56924Z" fill="#EBEBEB"/>
<path d="M9.88382 227.468C76.6399 227.468 130.756 221.952 130.756 215.147C130.756 208.343 76.6399 202.827 9.88382 202.827C-56.8723 202.827 -110.989 208.343 -110.989 215.147C-110.989 221.952 -56.8723 227.468 9.88382 227.468Z" fill="#EBEBEB"/>
<path d="M-109.424 201.776L-68.8746 201.651L-28.3204 201.605L52.7881 201.522L133.897 201.605L174.451 201.651L215 201.776L174.451 201.905L133.897 201.952L52.7881 202.035L-28.3204 201.952L-68.8746 201.905L-109.424 201.776Z" fill="#263238"/>
<path d="M96.4979 74.3718L85.1323 11.9367L74.6278 74.3666L74.1264 74.2785L85.1121 8.99908L96.9942 74.2733L96.4979 74.3718Z" fill="#DBDBDB"/>
<path d="M93.459 125.958L85.2539 95.142L77.6668 125.953L77.1755 125.829L85.2337 93.1007L93.9452 125.823L93.459 125.958Z" fill="#DBDBDB"/>
<path d="M86.1654 9.97329C86.1654 10.1844 86.1042 10.3907 85.9896 10.5662C85.8749 10.7417 85.712 10.8785 85.5213 10.9593C85.3307 11.0401 85.1209 11.0612 84.9185 11.02C84.7161 10.9789 84.5302 10.8772 84.3843 10.728C84.2384 10.5787 84.139 10.3885 84.0988 10.1815C84.0585 9.97447 84.0792 9.75988 84.1581 9.56486C84.2371 9.36984 84.3708 9.20316 84.5424 9.08589C84.714 8.96861 84.9157 8.90602 85.1221 8.90602C85.2593 8.90533 85.3952 8.93247 85.5221 8.98586C85.649 9.03925 85.7643 9.11784 85.8613 9.21708C85.9583 9.31633 86.0352 9.43425 86.0874 9.56405C86.1396 9.69385 86.1661 9.83294 86.1654 9.97329Z" fill="#A6A6A6"/>
<path d="M94.7707 124.912L94.4516 129.243L93.6868 139.558H77.4388L76.674 129.243L76.3499 124.912H94.7707Z" fill="#2962FF"/>
<path opacity="0.1" d="M94.7707 124.912L94.4516 129.243H76.674L76.3499 124.912H94.7707Z" fill="#0F172A"/>
<path d="M95.8849 123.523H75.2355V126.886H95.8849V123.523Z" fill="#2962FF"/>
<path d="M96.4472 122.829C96.4339 122.965 96.3945 123.097 96.3313 123.217C96.268 123.337 96.1821 123.443 96.0786 123.53C95.975 123.616 95.8558 123.68 95.7279 123.719C95.5999 123.758 95.4657 123.771 95.3329 123.756C95.1975 123.935 95.0106 124.065 94.7987 124.128C94.5868 124.191 94.3608 124.184 94.1528 124.109C94.0502 124.337 93.8816 124.528 93.6698 124.656C93.4579 124.784 93.2129 124.842 92.9677 124.824C93.0526 125.118 93.0277 125.434 92.8976 125.711C92.7675 125.988 92.5416 126.205 92.2636 126.321C92.2145 126.488 92.1108 126.634 91.9699 126.732C91.8289 126.831 91.6592 126.878 91.4887 126.865C91.2974 126.836 91.1153 126.763 90.957 126.649C90.7987 126.536 90.6685 126.386 90.577 126.212C90.4979 126.319 90.3979 126.408 90.2832 126.473C90.1685 126.538 90.0418 126.578 89.9112 126.591C89.7805 126.603 89.6488 126.587 89.5245 126.544C89.4002 126.501 89.286 126.432 89.1893 126.342C89.0806 126.232 89.0066 126.091 88.9768 125.938C88.9471 125.784 88.9628 125.626 89.0221 125.481C88.9563 125.451 88.895 125.41 88.8398 125.362C88.7109 125.227 88.6146 125.063 88.5583 124.883C88.502 124.703 88.4874 124.513 88.5157 124.326C88.246 124.437 87.9446 124.437 87.6749 124.326C87.6439 124.465 87.5702 124.591 87.4644 124.684C87.3587 124.777 87.2266 124.833 87.0874 124.844C87.1372 125.02 87.1457 125.206 87.1123 125.386C87.0788 125.566 87.0044 125.735 86.8949 125.88C86.7644 126.032 86.5998 126.148 86.4153 126.219C86.2308 126.291 86.032 126.315 85.8364 126.29C85.9528 126.86 85.9782 127.502 85.4768 127.88C85.3587 127.97 85.219 128.025 85.0727 128.039C84.9263 128.054 84.7789 128.028 84.6461 127.963C84.6189 128.108 84.5629 128.246 84.4816 128.368C84.4003 128.489 84.2953 128.593 84.1733 128.672C84.0512 128.75 83.9147 128.803 83.7721 128.825C83.6296 128.848 83.484 128.84 83.3444 128.802C83.4351 129.152 83.3897 129.523 83.2178 129.839C83.1456 129.966 83.0452 130.074 82.9246 130.154C82.8041 130.234 82.6668 130.284 82.5239 130.3C82.5239 130.854 82.291 131.455 81.6579 131.445C81.5647 131.441 81.4734 131.417 81.3903 131.374C81.3073 131.331 81.2344 131.27 81.177 131.195C81.1196 131.12 81.0789 131.033 81.0578 130.94C81.0368 130.847 81.0359 130.75 81.0551 130.657C80.9175 130.625 80.7907 130.556 80.6873 130.458C80.5839 130.359 80.5076 130.235 80.4661 130.097C80.4245 129.959 80.4191 129.812 80.4505 129.671C80.4819 129.53 80.5489 129.401 80.6449 129.295C80.5068 129.183 80.3952 129.041 80.3185 128.879C80.2418 128.717 80.202 128.539 80.202 128.359C80.202 128.18 80.2418 128.002 80.3185 127.84C80.3952 127.678 80.5068 127.536 80.6449 127.424C80.5699 127.349 80.511 127.259 80.4717 127.159C80.4324 127.059 80.4135 126.952 80.4164 126.845C80.4192 126.738 80.4437 126.632 80.4882 126.535C80.5328 126.437 80.5964 126.35 80.6753 126.279C80.5574 126.178 80.463 126.051 80.3991 125.907C80.3351 125.764 80.3032 125.608 80.3055 125.45C80.3199 125.258 80.3812 125.072 80.4839 124.91C80.5865 124.748 80.7272 124.615 80.8931 124.523C80.829 124.497 80.7707 124.458 80.722 124.408C80.6732 124.358 80.6349 124.298 80.6094 124.233C80.6066 124.204 80.6066 124.174 80.6094 124.145C80.5152 124.187 80.4135 124.209 80.3106 124.209C80.2077 124.209 80.106 124.187 80.0118 124.145C79.8857 124.086 79.7811 123.988 79.713 123.865C79.5578 124.016 79.3669 124.123 79.1592 124.175C78.9514 124.228 78.7339 124.225 78.5278 124.166C78.4571 124.298 78.359 124.414 78.2402 124.503C78.1213 124.593 77.9848 124.655 77.84 124.685C77.6952 124.716 77.5458 124.713 77.4021 124.678C77.2584 124.642 77.124 124.576 77.0083 124.482C76.6386 124.824 76.127 125.155 75.6408 124.844C75.551 124.784 75.4783 124.701 75.4302 124.602C75.3822 124.504 75.3605 124.394 75.3673 124.285C75.2406 124.287 75.1158 124.254 75.0067 124.188C74.8976 124.122 74.8085 124.026 74.7494 123.912C74.6847 123.778 74.6665 123.625 74.6978 123.479C74.7291 123.333 74.808 123.203 74.9216 123.109C74.8046 123.022 74.7219 122.895 74.6886 122.751C74.6773 122.65 74.6867 122.548 74.7163 122.451C74.7458 122.354 74.7948 122.264 74.8601 122.188C74.9254 122.111 75.0055 122.049 75.0955 122.006C75.1855 121.963 75.2832 121.94 75.3825 121.938C75.321 121.763 75.3064 121.575 75.3402 121.393C75.3741 121.21 75.4551 121.041 75.575 120.902C75.7253 120.747 75.9074 120.629 76.108 120.555C76.3086 120.482 76.5228 120.455 76.7348 120.477C76.6918 120.217 76.728 119.95 76.8386 119.711C76.9491 119.473 77.1286 119.275 77.3527 119.145C77.5647 119.039 77.8062 119.012 78.0355 119.069C78.2649 119.126 78.4676 119.263 78.6088 119.456C78.7484 119.242 78.9342 119.064 79.1519 118.936C79.3696 118.807 79.6133 118.732 79.8641 118.715C80.1149 118.699 80.3661 118.742 80.5981 118.84C80.8301 118.939 81.0368 119.091 81.202 119.285C81.2892 119.099 81.4415 118.952 81.6289 118.874C81.8164 118.797 82.0254 118.794 82.215 118.865C82.464 118.983 82.6712 119.177 82.8082 119.42C82.9451 119.663 83.0051 119.944 82.9798 120.223C83.2356 120.094 83.5207 120.038 83.805 120.06C84.0894 120.083 84.3625 120.184 84.5955 120.352C84.7987 120.514 84.9613 120.723 85.0696 120.962C85.178 121.2 85.229 121.462 85.2184 121.725C85.4549 121.594 85.7226 121.533 85.9912 121.55C86.2598 121.566 86.5185 121.659 86.7379 121.819C87.1245 121.229 87.6907 120.786 88.3485 120.56C88.5747 120.5 88.8111 120.495 89.0395 120.545C89.2678 120.594 89.482 120.697 89.6654 120.845C89.7637 120.499 89.9585 120.191 90.2259 119.958C90.4932 119.724 90.8214 119.576 91.1701 119.531C91.5189 119.486 91.8729 119.546 92.1886 119.704C92.5044 119.862 92.7681 120.11 92.9474 120.42C93.1317 120.265 93.3548 120.167 93.5913 120.135C93.8277 120.104 94.0679 120.142 94.2845 120.244C94.5744 120.406 94.8284 120.628 95.0306 120.895C95.2328 121.163 95.3788 121.47 95.4596 121.798C95.5914 121.796 95.7221 121.822 95.8439 121.874C95.9657 121.925 96.0761 122.002 96.1684 122.098C96.2606 122.194 96.3329 122.309 96.3808 122.434C96.4287 122.56 96.4513 122.694 96.4472 122.829Z" fill="#37474F"/>
<path d="M97.8703 74.548L97.4398 80.3402L96.4167 94.1214H74.7087L73.6856 80.3402L73.2501 74.548H97.8703Z" fill="#2962FF"/>
<path opacity="0.1" d="M97.8703 74.548L97.4398 80.3402H73.6856L73.2501 74.548H97.8703Z" fill="#0F172A"/>
<path d="M99.3646 72.6932H71.7662V77.1902H99.3646V72.6932Z" fill="#2962FF"/>
<path d="M98.7315 73.8279C98.9114 74.0367 99.0365 74.2889 99.095 74.5608C99.1534 74.8327 99.1434 75.1153 99.0658 75.3821C98.9 75.743 98.6654 76.0664 98.3757 76.3333C98.0861 76.6002 97.7473 76.8052 97.3792 76.9364C97.5307 77.1492 97.6358 77.3927 97.6877 77.6506C97.7395 77.9084 97.7368 78.1746 97.6797 78.4313C97.6226 78.688 97.5125 78.9292 97.3567 79.1387C97.2009 79.3482 97.003 79.5212 96.7765 79.646C97.4349 80.4335 97.7033 81.3298 96.8524 81.9101C97.0056 82.1369 97.1119 82.3933 97.1649 82.6636C97.2178 82.9339 97.2163 83.2124 97.1603 83.4821C97.1044 83.7518 96.9952 84.0069 96.8395 84.2319C96.6838 84.4569 96.4848 84.647 96.2548 84.7907C96.4422 85.4124 95.8547 87.2723 94.6087 87.2723C94.3809 87.2705 94.1574 87.2083 93.9601 87.0918C93.7628 86.9752 93.5984 86.8082 93.483 86.6072C93.3677 86.4062 93.3053 86.1781 93.302 85.945C93.2987 85.712 93.3545 85.482 93.464 85.2777C93.2511 85.1637 93.0677 84.9998 92.9287 84.7993C92.7898 84.5988 92.6993 84.3675 92.6647 84.1243C92.6301 83.8811 92.6524 83.6329 92.7297 83.4002C92.807 83.1675 92.9372 82.9569 93.1095 82.7856C93.1095 82.7856 92.3396 82.9514 91.9699 82.5525C91.8708 82.396 91.8131 82.2158 91.8025 82.0297C91.7918 81.8435 91.8286 81.6577 91.9091 81.4904C91.7557 81.295 91.6437 81.0691 91.5804 80.8269C91.5171 80.5848 91.5039 80.3318 91.5416 80.0842C91.5792 79.8365 91.6669 79.5996 91.7991 79.3886C91.9313 79.1775 92.105 78.997 92.3093 78.8585C92.155 78.719 92.0315 78.5475 91.9469 78.3555C91.8623 78.1635 91.8185 77.9553 91.8185 77.7446C91.8185 77.534 91.8623 77.3258 91.9469 77.1337C92.0315 76.9417 92.155 76.7703 92.3093 76.6307C91.9602 76.4682 91.6633 76.2077 91.4533 75.8795C90.8202 76.1903 90.4403 75.9158 90.0959 75.3096C89.9036 75.5315 89.6515 75.6903 89.3712 75.7659C89.0909 75.8415 88.795 75.8305 88.5207 75.7344C88.4471 75.9925 88.3171 76.2301 88.1405 76.4291C87.9638 76.6282 87.7452 76.7835 87.5012 76.8833C87.2572 76.9832 86.9942 77.0249 86.7321 77.0054C86.4699 76.9858 86.2156 76.9056 85.9883 76.7706C85.9585 77.249 85.7931 77.7081 85.5122 78.0917C85.4213 78.2037 85.325 78.3109 85.2235 78.413C85.1143 78.5575 85.0208 78.7138 84.945 78.8792C84.8043 79.1436 84.609 79.3734 84.3726 79.5528C84.1683 79.725 83.9089 79.8139 83.6443 79.8025C83.3798 79.791 83.1287 79.6799 82.9393 79.4906C82.8417 79.3717 82.7778 79.2277 82.7546 79.0742C82.7314 78.9208 82.7497 78.7637 82.8076 78.6202C82.5312 78.5235 82.3036 78.3188 82.1745 78.0508C82.0454 77.7828 82.0254 77.4733 82.1188 77.1903C81.8468 77.2128 81.5746 77.15 81.3384 77.0102C81.1023 76.8704 80.9133 76.6603 80.7968 76.4079C80.6674 76.5765 80.5031 76.7137 80.3157 76.8095C80.1283 76.9054 79.9225 76.9576 79.713 76.9623C79.8544 77.3605 79.8389 77.7994 79.6697 78.1862C79.5005 78.5729 79.1909 78.8772 78.8064 79.0347C78.9255 79.2358 79.002 79.4603 79.0309 79.6937C79.0598 79.927 79.0404 80.164 78.9741 80.3892C78.9077 80.6143 78.7958 80.8227 78.6456 81.0009C78.4954 81.179 78.3104 81.3228 78.1024 81.4231C78.2472 81.6779 78.2932 81.979 78.2313 82.2668C78.1693 82.5547 78.0041 82.8082 77.7681 82.9773C77.8591 83.1924 77.9013 83.4258 77.8917 83.66C77.882 83.8941 77.8207 84.1231 77.7124 84.3296C77.6157 84.4786 77.4811 84.5978 77.3232 84.6745C77.1652 84.7511 76.9899 84.7824 76.8159 84.7648C76.7086 84.737 76.6092 84.6837 76.5258 84.6092C76.4425 84.5348 76.3774 84.4413 76.336 84.3363C76.2945 84.2313 76.2778 84.1179 76.2873 84.0051C76.2968 83.8923 76.3321 83.7833 76.3904 83.6871C76.11 83.5819 75.86 83.406 75.6636 83.1759C75.4672 82.9457 75.3306 82.6686 75.2665 82.3702C75.2024 82.0717 75.2128 81.7616 75.2968 81.4684C75.3809 81.1752 75.5357 80.9084 75.7472 80.6926C75.5223 80.6346 75.3144 80.5222 75.1408 80.3649C74.9673 80.2076 74.8331 80.0099 74.7498 79.7886C74.6664 79.5672 74.6362 79.3286 74.6617 79.0929C74.6872 78.8571 74.7676 78.631 74.8963 78.4337C74.6166 78.3671 74.3612 78.2207 74.1595 78.0117C73.9578 77.8026 73.8181 77.5394 73.7567 77.2524C73.7228 77.0416 73.7333 76.8258 73.7875 76.6194C73.8416 76.413 73.9382 76.2208 74.0707 76.0557C73.9249 76.0785 73.7758 76.063 73.6375 76.0104C73.4993 75.9578 73.3764 75.8699 73.2806 75.7552C73.1689 75.6072 73.1116 75.4239 73.1186 75.2371C72.8892 75.292 72.6486 75.2715 72.4313 75.1785C72.214 75.0855 72.0308 74.9247 71.908 74.719C71.8044 74.5055 71.7701 74.2637 71.8102 74.0288C71.8503 73.794 71.9626 73.5783 72.1309 73.4134C71.9784 73.3637 71.841 73.2747 71.7318 73.1549C71.6227 73.0351 71.5456 72.8886 71.5079 72.7295C71.469 72.5351 71.494 72.3329 71.5788 72.1544C71.434 72.1857 71.2845 72.1862 71.1395 72.1559C70.9945 72.1255 70.8571 72.0649 70.736 71.978C70.6148 71.891 70.5125 71.7794 70.4353 71.6502C70.3581 71.521 70.3077 71.377 70.2873 71.227C70.2675 71.0259 70.3147 70.8237 70.4214 70.6535C70.528 70.4832 70.6878 70.3549 70.8748 70.2893C70.7712 70.0649 70.7427 69.8118 70.7938 69.5692C70.9558 68.8853 71.7308 68.6729 72.3436 68.5951C72.2675 68.3654 72.2506 68.1195 72.2946 67.8811C72.3386 67.6428 72.4421 67.4201 72.5949 67.2346C72.7477 67.0491 72.9447 66.9071 73.1669 66.8224C73.389 66.7376 73.6288 66.7129 73.8631 66.7507C73.8414 66.4853 73.8913 66.2189 74.0074 65.9804C74.1235 65.742 74.3013 65.5407 74.5215 65.3985C74.7533 65.2653 75.0186 65.2054 75.2837 65.2267C75.5489 65.2479 75.8018 65.3492 76.0106 65.5177H76.0511C76.441 65.5798 76.797 65.7807 77.0564 66.0849C77.3158 66.3891 77.462 66.7771 77.4693 67.1808C77.7213 67.0415 78.0033 66.9687 78.2898 66.9687C78.5762 66.9687 78.8582 67.0415 79.1103 67.1808C79.4083 67.3656 79.664 67.614 79.8598 67.9091C80.0555 68.2041 80.1869 68.5388 80.2448 68.8905C80.4566 68.6604 80.7187 68.4849 81.0096 68.3785C81.3005 68.272 81.6119 68.2376 81.9183 68.2781C82.2247 68.3185 82.5174 68.4326 82.7723 68.6111C83.0273 68.7896 83.2372 69.0274 83.385 69.3049C83.6181 69.0482 83.9183 68.8651 84.2499 68.7774C84.5816 68.6897 84.9309 68.7011 85.2564 68.8101C85.582 68.9191 85.8702 69.1212 86.087 69.3925C86.3038 69.6639 86.44 69.993 86.4796 70.3411C87.0513 69.8557 87.7328 69.5246 88.4619 69.378C89.1909 69.2314 89.9442 69.2739 90.6531 69.5018C90.756 69.214 90.9221 68.9541 91.1386 68.7422C91.3551 68.5303 91.6162 68.372 91.9018 68.2794C92.1875 68.1869 92.4901 68.1625 92.7864 68.2083C93.0826 68.254 93.3647 68.3686 93.6109 68.5433C93.7738 68.1428 94.0594 67.807 94.4247 67.5866C94.79 67.3661 95.2153 67.2728 95.6369 67.3206C96.1318 67.4136 96.5951 67.6348 96.9826 67.9632C97.3701 68.2915 97.6688 68.716 97.8502 69.1961C98.1533 69.218 98.4476 69.3105 98.7103 69.4667C98.9731 69.6228 99.1974 69.8384 99.3661 70.097C99.5348 70.3556 99.6433 70.6502 99.6835 70.9584C99.7236 71.2665 99.6942 71.5799 99.5976 71.8747C99.6709 72.0606 99.7066 72.2599 99.7024 72.4603C99.6982 72.6608 99.6543 72.8583 99.5734 73.0409C99.4924 73.2236 99.376 73.3874 99.2313 73.5227C99.0866 73.658 98.9166 73.7618 98.7315 73.8279Z" fill="#37474F"/>
<path d="M198.793 7.83344H116.894V201.776H198.793V7.83344Z" fill="#C7C7C7"/>
<path d="M198.793 180.648H116.894V201.776H198.793V180.648Z" fill="#A6A6A6"/>
<path d="M121.184 7.83344H116.894V201.776H121.184V7.83344Z" fill="#DBDBDB"/>
<path d="M167.796 191.719L121.184 201.776V7.83344L167.796 22.0084V191.719Z" fill="#EBEBEB"/>
<path d="M127.591 143.138C127.642 144.967 127.672 146.801 127.707 148.635C127.743 150.469 127.768 152.303 127.789 154.132C127.839 157.8 127.873 161.467 127.89 165.131C127.915 168.799 127.89 172.467 127.915 176.135C127.94 179.803 127.915 183.477 127.88 187.15L127.601 186.694C129.465 186.4 131.322 186.124 133.172 185.865L135.973 185.508C136.905 185.388 137.837 185.274 138.769 185.186C137.837 185.43 136.905 185.648 135.973 185.87L133.172 186.518C131.309 186.936 129.451 187.331 127.601 187.704L127.323 187.761V187.243C127.323 183.575 127.292 179.902 127.282 176.229C127.272 172.555 127.282 168.877 127.312 165.198C127.343 161.52 127.358 157.842 127.404 154.163C127.424 152.326 127.453 150.486 127.49 148.645C127.515 146.811 127.545 144.977 127.591 143.138Z" fill="#A6A6A6"/>
<path d="M141.676 180.643C141.626 178.617 141.595 176.586 141.565 174.555C141.534 172.524 141.499 170.499 141.479 168.462C141.431 164.401 141.398 160.335 141.377 156.267C141.347 152.194 141.377 148.127 141.337 144.055C141.296 139.983 141.337 135.911 141.367 131.839L141.656 132.326C139.336 132.371 137.018 132.39 134.702 132.383C133.547 132.383 132.389 132.369 131.227 132.341C130.073 132.341 128.913 132.305 127.753 132.258C128.913 132.139 130.073 132.046 131.227 131.958C132.382 131.87 133.547 131.776 134.702 131.709C137.022 131.557 139.34 131.433 141.656 131.336H141.94V131.854C141.97 135.916 141.97 139.983 141.98 144.045C141.99 148.107 141.98 152.174 141.955 156.241C141.929 160.308 141.909 164.375 141.864 168.442C141.843 170.476 141.816 172.514 141.783 174.555C141.752 176.565 141.722 178.607 141.676 180.643Z" fill="#A6A6A6"/>
<path d="M147.247 141.957C147.298 143.687 147.329 145.423 147.364 147.138C147.399 148.853 147.43 150.609 147.45 152.345C147.501 155.799 147.534 159.268 147.551 162.753C147.582 166.219 147.551 169.69 147.587 173.161C147.622 176.633 147.587 180.109 147.556 183.585L147.273 183.161C149.142 182.86 151.006 182.575 152.875 182.321L155.67 181.953C156.602 181.834 157.539 181.715 158.471 181.622C157.539 181.865 156.607 182.083 155.67 182.295L152.875 182.938C151.004 183.352 149.137 183.744 147.273 184.114L146.994 184.171V183.689C146.964 180.211 146.949 176.735 146.949 173.26C146.949 169.778 146.949 166.302 146.949 162.82C146.949 159.339 146.994 155.857 147.04 152.376C147.06 150.649 147.087 148.908 147.121 147.153C147.172 145.413 147.202 143.698 147.247 141.957Z" fill="#A6A6A6"/>
<path d="M161.348 177.327C161.298 175.415 161.267 173.498 161.237 171.581C161.206 169.664 161.166 167.753 161.146 165.83C161.095 161.997 161.059 158.158 161.039 154.313C161.009 150.469 161.009 146.625 160.994 142.781C160.978 138.936 160.994 135.092 161.019 131.248L161.303 131.704C158.986 131.749 156.67 131.769 154.354 131.766C153.199 131.766 152.039 131.766 150.879 131.735C149.719 131.704 148.564 131.704 147.405 131.662C148.564 131.548 149.724 131.46 150.879 131.372C152.034 131.284 153.199 131.196 154.354 131.129C156.673 130.989 158.988 130.864 161.303 130.771H161.586V131.243C161.617 135.082 161.617 138.921 161.632 142.755C161.647 146.589 161.632 150.428 161.632 154.272C161.632 158.116 161.586 161.95 161.546 165.794C161.546 167.716 161.5 169.644 161.47 171.566C161.439 173.488 161.394 175.4 161.348 177.327Z" fill="#A6A6A6"/>
<path d="M127.581 55.7828C127.631 57.6272 127.662 59.4664 127.692 61.3056C127.723 63.1448 127.758 64.9893 127.778 66.8285C127.822 70.5 127.854 74.1733 127.875 77.8483C127.875 81.5215 127.875 85.1896 127.905 88.8577C127.935 92.5258 127.905 96.1939 127.869 99.8619L127.586 99.3438C129.45 99.4941 131.314 99.6547 133.157 99.8619L135.948 100.168C136.88 100.276 137.812 100.38 138.744 100.515C137.812 100.515 136.88 100.515 135.948 100.515H133.157C131.293 100.515 129.429 100.437 127.586 100.37H127.312V99.8516C127.289 96.1731 127.275 92.4964 127.272 88.8214C127.272 85.1482 127.272 81.4697 127.297 77.8016C127.322 74.1335 127.348 70.4551 127.393 66.787C127.393 64.953 127.439 63.1241 127.474 61.2901C127.51 59.456 127.53 57.6168 127.581 55.7828Z" fill="#A6A6A6"/>
<path d="M141.636 96.6446C141.59 94.6085 141.56 92.5724 141.524 90.5363C141.489 88.5002 141.459 86.4589 141.438 84.4228C141.394 80.3437 141.361 76.2698 141.337 72.201C141.312 68.1237 141.312 64.0566 141.301 59.9845C141.291 55.9123 141.301 51.8401 141.301 47.7782L141.59 48.3326C139.276 47.8145 136.966 47.2964 134.651 46.7317C133.497 46.4571 132.342 46.1618 131.187 45.8613C130.032 45.5608 128.872 45.2759 127.718 44.9495C128.872 45.1049 130.027 45.2966 131.187 45.4676C132.347 45.6385 133.497 45.8406 134.651 46.0478C136.968 46.4519 139.281 46.8785 141.59 47.3275L141.874 47.3845V47.9026C141.904 51.9696 141.904 56.0314 141.914 60.0984C141.924 64.1654 141.914 68.2273 141.914 72.2839C141.914 76.3406 141.869 80.4076 141.823 84.4694C141.823 86.5003 141.778 88.5261 141.742 90.557C141.707 92.5879 141.681 94.6395 141.636 96.6446Z" fill="#A6A6A6"/>
<path d="M147.197 59.2852C147.248 61.0311 147.278 62.7719 147.313 64.5127C147.349 66.2535 147.379 67.9994 147.4 69.7402C147.45 73.2149 147.484 76.6913 147.501 80.1694C147.531 83.6458 147.531 87.117 147.536 90.5882C147.541 94.0594 147.536 97.5306 147.506 101.002L147.222 100.51C149.086 100.655 150.95 100.815 152.794 101.002L155.584 101.302C156.516 101.406 157.448 101.504 158.38 101.634C157.448 101.634 156.516 101.634 155.584 101.634L152.794 101.608C150.93 101.582 149.066 101.525 147.222 101.453H146.949V100.971C146.918 97.4892 146.913 94.0128 146.903 90.5312C146.893 87.0496 146.903 83.5784 146.903 80.102C146.903 76.6257 146.949 73.1493 146.994 69.6781C147.015 67.9511 147.042 66.2241 147.075 64.4972C147.121 62.746 147.151 61.0104 147.197 59.2852Z" fill="#A6A6A6"/>
<path d="M161.272 98.0073C161.221 96.08 161.191 94.1578 161.156 92.2357C161.12 90.3136 161.09 88.3863 161.07 86.4642C161.019 82.6131 160.983 78.7654 160.963 74.9211C160.933 71.0717 160.933 67.2275 160.918 63.3833C160.902 59.539 160.918 55.6948 160.918 51.8557L161.201 52.3738C158.892 51.8661 156.58 51.3342 154.267 50.7781C153.113 50.5087 151.953 50.2186 150.798 49.9233C149.643 49.628 148.488 49.3378 147.329 49.0218C148.488 49.1824 149.643 49.3689 150.798 49.5399C151.953 49.7109 153.108 49.9129 154.267 50.1201C156.577 50.5312 158.888 50.9629 161.201 51.4154L161.485 51.4724V51.9438C161.515 55.7881 161.515 59.6219 161.525 63.461C161.535 67.3 161.525 71.1339 161.525 74.9678C161.525 78.8016 161.485 82.6355 161.444 86.4694C161.424 88.3863 161.397 90.3033 161.363 92.2202C161.348 94.1682 161.318 96.0903 161.272 98.0073Z" fill="#A6A6A6"/>
<path d="M127.576 23.5525C127.672 25.485 127.733 27.4019 127.778 29.3188C127.824 31.2358 127.854 33.1475 127.874 35.0593L127.576 34.4531C128.508 34.6448 129.439 34.8572 130.366 35.0748C131.293 35.2924 132.225 35.5359 133.157 35.8002C134.089 36.0644 135.016 36.3182 135.948 36.6291C136.88 36.94 137.807 37.2404 138.739 37.6135C137.807 37.5461 136.88 37.427 135.948 37.2819C135.016 37.1368 134.089 36.9814 133.157 36.8001C132.225 36.6187 131.298 36.4167 130.366 36.2094C129.434 36.0022 128.508 35.7691 127.576 35.5204L127.277 35.4427V34.9246C127.277 33.018 127.322 31.1218 127.368 29.2256C127.414 27.3294 127.479 25.4332 127.576 23.5525Z" fill="#A6A6A6"/>
<path d="M141.61 37.2455C141.56 36.1782 141.529 35.111 141.499 34.0489C141.469 32.9868 141.433 31.9195 141.413 30.8626C141.362 28.7384 141.329 26.616 141.312 24.4953L141.605 25.0807C140.451 24.8113 139.291 24.4849 138.136 24.1844C136.981 23.8839 135.826 23.542 134.672 23.1793C133.517 22.8167 132.362 22.4592 131.207 22.0654C130.63 21.8737 130.047 21.6613 129.47 21.4437C128.893 21.2261 128.315 21.0189 127.738 20.7754C128.315 20.8531 128.893 20.9567 129.47 21.0603C130.047 21.164 130.63 21.2624 131.207 21.3867C132.362 21.6251 133.517 21.9048 134.672 22.1742C135.826 22.4436 136.981 22.7649 138.136 23.0705C139.291 23.3762 140.446 23.713 141.605 24.0756L141.899 24.1637V24.6818C141.899 26.7852 141.869 28.887 141.808 30.987C141.788 32.0231 141.761 33.0714 141.727 34.1318C141.686 35.1524 141.656 36.199 141.61 37.2455Z" fill="#A6A6A6"/>
<path d="M147.182 28.7748C147.278 30.6037 147.339 32.4015 147.384 34.2355C147.43 36.0696 147.465 37.8622 147.486 39.6703L147.187 39.09C148.119 39.2869 149.046 39.4941 149.978 39.7169C150.91 39.9397 151.836 40.178 152.768 40.4371C153.7 40.6961 154.627 40.9552 155.554 41.2556C156.481 41.5561 157.418 41.8618 158.345 42.2245C157.418 42.1468 156.486 42.0224 155.559 41.8774C154.632 41.7323 153.695 41.5665 152.768 41.3593C151.841 41.152 150.91 40.9707 149.978 40.7635C149.046 40.5562 148.119 40.3231 147.187 40.0796L146.883 40.0019V39.4838C146.883 37.6808 146.929 35.883 146.974 34.0904C147.02 32.2979 147.086 30.5519 147.182 28.7748Z" fill="#A6A6A6"/>
<path d="M161.217 41.9135C161.166 40.8773 161.135 39.8981 161.105 38.893C161.075 37.8879 161.039 36.8828 161.014 35.8829C160.968 33.8727 160.933 31.8729 160.918 29.8731L161.206 30.4274C160.052 30.1528 158.897 29.8316 157.742 29.526C156.587 29.2203 155.427 28.8835 154.273 28.526C153.118 28.1686 151.963 27.8111 150.808 27.4225C150.231 27.2308 149.653 27.0184 149.076 26.806C148.499 26.5936 147.921 26.3863 147.344 26.148C147.921 26.2309 148.499 26.3397 149.076 26.4433C149.653 26.5469 150.231 26.6557 150.808 26.7801C151.963 27.0236 153.118 27.2982 154.273 27.5728C155.427 27.8473 156.582 28.1686 157.742 28.4742C158.902 28.7799 160.052 29.1167 161.206 29.4742L161.5 29.5674V30.0337C161.5 32.0163 161.471 33.9988 161.414 35.9814C161.414 36.9709 161.368 37.9605 161.333 38.95C161.298 39.9396 161.267 40.9291 161.217 41.9135Z" fill="#A6A6A6"/>
<path d="M155.382 107.265L155.397 125.658L161.277 125.58L161.262 107.504L155.382 107.265Z" fill="white"/>
<path d="M156.785 111.338V115.493L161.267 114.975L161.262 111.467L156.785 111.338Z" fill="#EBEBEB"/>
<path d="M156.785 109.26V113.415L164.579 113.591L164.574 109.535L156.785 109.26Z" fill="white"/>
<path d="M206.116 0V201.776H198.793V7.83353H116.889V201.776H109.575V0H206.116Z" fill="#263238"/>
<path d="M158.957 198.133C159.97 198.434 189.818 196.833 190.866 196.061C190.998 195.973 190.917 193.217 190.739 189.435L191.372 166.908L172.511 167.69L171.726 187.212C171.726 187.212 167.563 189.372 164.129 191.253C162.624 192.024 161.168 192.889 159.768 193.844C158.679 194.807 157.929 197.838 158.957 198.133Z" fill="#D3766A"/>
<path d="M158.957 198.133C159.97 198.434 189.818 196.833 190.866 196.061C190.998 195.973 190.917 193.217 190.739 189.435C183.426 191.393 163.896 194.869 163.232 193.305C162.984 192.688 163.425 191.947 164.103 191.258C162.599 192.029 161.142 192.894 159.742 193.849C158.679 194.807 157.929 197.838 158.957 198.133Z" fill="#2962FF"/>
<path d="M196.387 84.8374C196.387 84.8374 191.646 143.102 191.565 143.812C191.565 143.905 192.477 186.207 192.477 186.207L171.559 187.067C171.559 187.067 172.212 150.075 172.754 141.786C173.443 131.217 177.313 85.5524 177.313 85.5524L196.387 84.8374Z" fill="#37474F"/>
<path d="M172.774 182.373C178.158 181.933 190.638 181.793 191.352 181.793C191.535 181.793 191.443 181.953 191.393 181.959C189.686 182.197 177.809 182.601 172.759 182.596C172.704 182.596 172.719 182.373 172.774 182.373Z" fill="#263238"/>
<path d="M191.565 143.806C191.565 143.806 191.565 143.977 191.565 144.283L181.349 85.4073L196.387 84.8374C196.387 84.8374 191.646 143.097 191.565 143.806Z" fill="#263238"/>
<path d="M198.793 166.654L198.742 166.483L198.793 166.462V166.654Z" fill="#D3766A"/>
<path d="M198.879 192.341C198.848 192.419 198.818 192.491 198.793 192.569V199.822C198.113 200.162 197.413 200.456 196.696 200.703C195.632 200.838 195.176 197.745 195.82 196.419C196.731 195.029 197.724 193.697 198.793 192.429L198.879 192.341Z" fill="#D3766A"/>
<path d="M198.793 192.559C198.504 193.346 198.423 194.066 198.793 194.507V199.833C198.113 200.172 197.413 200.466 196.696 200.713C195.632 200.848 195.176 197.755 195.82 196.429C196.731 195.039 197.724 193.707 198.793 192.439L198.879 192.331C198.848 192.419 198.818 192.491 198.793 192.559Z" fill="#2962FF"/>
<path d="M198.793 84.744V172.115C196.23 162.675 193.019 150.443 191.58 143.397C191.276 141.9 191.074 140.641 190.932 139.688C189.792 130.797 188.344 112.591 187.513 99.3697C187.513 99.3697 185.042 97.8155 183.269 96.5099C182.71 96.1216 182.188 95.6811 181.709 95.1939L181.668 95.1473C180.893 94.2095 180.027 90.9559 178.594 87.5106C178.528 87.3552 178.462 87.1946 178.391 87.034C178.321 86.8734 178.265 86.7387 178.194 86.5884C178.123 86.4382 177.996 86.1429 177.89 85.9253C177.839 85.8009 177.779 85.6818 177.723 85.5626L179.896 85.4797L181.349 85.4227L196.387 84.8528L197.299 84.8166L198.793 84.744Z" fill="#37474F"/>
<path d="M181.126 94.9194C182.419 95.5002 183.646 96.221 184.788 97.0695C186.004 97.8932 187.113 98.8517 188.283 99.7376C188.329 99.7687 188.283 99.8465 188.237 99.8154C187.007 99.0331 185.705 98.3492 184.51 97.5461C183.292 96.8102 182.141 95.9641 181.071 95.0178C181.03 94.9764 181.076 94.8987 181.126 94.9194Z" fill="#263238"/>
<path d="M180.868 87.2101C181.035 88.065 181.248 88.9043 181.44 89.7488C181.633 90.5933 181.749 91.3549 181.947 92.1424C182.125 92.9009 182.511 93.5914 183.061 94.1318C183.37 94.422 183.71 94.6499 184.039 94.9349C184.216 95.0748 184.408 95.2095 184.591 95.3545C184.591 95.2406 184.545 95.1266 184.525 95.0126C184.464 94.6862 184.408 94.365 184.353 94.0386C184.226 93.3236 184.105 92.6035 183.988 91.8833C183.755 90.4741 183.542 89.0442 183.238 87.6453C183.242 87.6362 183.247 87.6283 183.255 87.6227C183.263 87.6171 183.272 87.614 183.282 87.614C183.291 87.614 183.3 87.6171 183.308 87.6227C183.316 87.6283 183.321 87.6362 183.325 87.6453C183.684 89.0286 184.084 90.3964 184.403 91.7901C184.555 92.4739 185.123 95.8623 185.153 96.1006C185.183 96.3389 185.204 96.6187 185.214 96.8466C185.244 97.0995 185.244 97.3553 185.214 97.6082C185.209 97.6193 185.201 97.6288 185.191 97.6354C185.181 97.642 185.17 97.6456 185.158 97.6456C185.146 97.6456 185.135 97.642 185.125 97.6354C185.115 97.6288 185.107 97.6193 185.102 97.6082C184.998 97.3737 184.923 97.1265 184.879 96.8725C184.819 96.629 184.763 96.3855 184.717 96.142C184.717 96.0488 184.687 95.9607 184.672 95.8674C184.343 95.6706 184.034 95.4063 183.73 95.1836C183.426 94.9608 183.056 94.7121 182.717 94.4479C182.135 93.957 181.711 93.2979 181.501 92.5568C181.293 91.7608 181.152 90.9478 181.081 90.127C180.964 89.1633 180.878 88.1945 180.731 87.2361C180.777 87.1791 180.858 87.1532 180.868 87.2101Z" fill="#263238"/>
<path d="M198.803 58.1972V64.2744L197.947 64.1915C197.896 64.0517 197.84 63.9014 197.785 63.7408L197.638 63.2952C197.572 63.088 197.506 62.8652 197.44 62.6321C197.395 62.487 197.354 62.342 197.319 62.1865C197.283 62.0311 197.202 61.7513 197.152 61.5234C197.116 61.3783 197.081 61.2281 197.05 61.0778C197.02 60.9276 196.954 60.6426 196.913 60.4147C196.883 60.2696 196.858 60.1194 196.837 59.9691C196.817 59.8189 196.762 59.5339 196.731 59.306L196.67 58.8604C196.67 58.6428 196.62 58.4252 196.599 58.1972C196.599 58.0522 196.599 57.9019 196.564 57.7517C196.529 57.6014 196.534 57.3113 196.529 57.0885C196.523 56.8657 196.529 56.7932 196.529 56.643C196.529 56.6844 196.493 56.845 196.448 57.0885C196.402 57.332 196.377 57.4926 196.326 57.7517C196.326 57.8916 196.275 58.0418 196.25 58.1972C196.225 58.3527 196.179 58.6273 196.139 58.8604C196.139 59.0003 196.093 59.1505 196.068 59.306C196.042 59.4614 195.997 59.7411 195.961 59.9691L195.9 60.4147C195.865 60.6323 195.835 60.855 195.804 61.0778L195.743 61.5234L195.667 62.1865C195.667 62.3368 195.632 62.487 195.617 62.6321C195.617 62.8601 195.576 63.0828 195.561 63.2952C195.546 63.5077 195.536 63.5957 195.531 63.7408C195.531 63.803 195.531 63.8652 195.531 63.9273L195.252 63.8962L194.969 63.8652L194.695 63.8341H194.573L193.859 63.7512H193.814C193.783 63.6061 193.758 63.461 193.728 63.3108C193.697 63.1605 193.657 62.8756 193.621 62.6476L193.561 62.2021C193.535 61.9897 193.51 61.7669 193.495 61.5389C193.495 61.3939 193.469 61.2436 193.459 61.0934C193.449 60.9431 193.459 60.7048 193.459 60.5027C193.457 60.4786 193.457 60.4543 193.459 60.4302C193.457 60.4026 193.457 60.3749 193.459 60.3473V60.4302C193.459 60.5442 193.393 60.7773 193.333 61.0934C193.333 61.2281 193.287 61.3731 193.257 61.5389C193.226 61.7047 193.181 61.9638 193.14 62.2021C193.14 62.3471 193.095 62.4922 193.074 62.6476C193.054 62.8031 193.003 63.088 192.968 63.3108L192.922 63.6372L190.091 63.3108L187.898 63.0517L187.305 62.9792L184.591 62.6476L180.964 62.2021L180.068 62.0933C180.108 61.9068 180.144 61.7203 180.174 61.5389C180.205 61.3576 180.225 61.2436 180.25 61.0934C180.275 60.9431 180.311 60.6478 180.331 60.4302C180.351 60.2126 180.367 60.1297 180.377 59.9847C180.377 59.7567 180.412 59.5339 180.417 59.3215C180.417 59.2179 180.417 59.1143 180.417 59.0158V58.8759C180.422 58.8433 180.422 58.8101 180.417 58.7775C180.42 58.769 180.42 58.7601 180.417 58.7516V58.6635C180.417 58.4563 180.417 58.2646 180.417 58.0781C180.367 56.2596 180.022 55.2079 180.027 55.5291C180.055 56.9383 179.839 58.3415 179.389 59.6738C179.128 60.4456 178.768 61.1789 178.32 61.855H178.087L174.892 61.456C174.203 61.3783 177.105 59.3837 177.161 57.1921C177.216 55.0006 175.965 52.6848 177.267 49.5451C177.622 48.6861 178.047 47.8594 178.538 47.0738C179.399 45.6905 180.215 44.701 180.792 42.8877V42.841C180.851 42.6261 180.888 42.4056 180.903 42.1831C181.06 40.6288 180.903 37.5202 181.633 34.6811C181.704 34.3858 181.79 34.0957 181.881 33.8107C182.03 33.3509 182.215 32.9039 182.433 32.474C182.798 31.6908 183.323 30.9966 183.972 30.438C184.621 29.8795 185.379 29.4696 186.196 29.236H186.232C187.624 28.8034 189.11 28.7955 190.507 29.2133C191.904 29.631 193.152 30.4563 194.097 31.5881C197.85 33.189 196.934 38.8414 196.539 41.9499C196.498 42.294 196.498 42.642 196.539 42.9861C196.675 44.3487 197.45 45.3952 198.342 46.5506V46.5765L198.782 47.1567V58.1506C198.782 58.1506 198.798 58.1921 198.803 58.1972Z" fill="#263238"/>
<path d="M198.793 46.2085V47.0789L198.615 46.8872L198.352 46.6023V46.5764C197.719 45.9175 197.182 45.169 196.757 44.3538C196.284 43.3939 196.108 42.31 196.25 41.2452C196.261 41.8412 196.362 42.4318 196.549 42.9964C196.681 43.4041 196.861 43.7938 197.086 44.1569C197.567 44.9123 198.141 45.6018 198.793 46.2085Z" fill="#263238"/>
<path d="M182.367 32.4688C181.832 33.6247 181.434 34.8423 181.182 36.0954C180.904 37.3492 180.676 38.6185 180.488 39.8774L180.174 41.7633C180.082 42.3711 179.931 42.968 179.723 43.5455C179.251 44.683 178.582 45.7238 177.748 46.6178C177.327 47.1077 176.939 47.6271 176.588 48.1721C176.238 48.7383 175.951 49.3431 175.732 49.975C175.532 50.6044 175.379 51.2487 175.277 51.9023C175.171 52.5597 175.144 53.2277 175.195 53.8918C175.246 54.555 175.368 55.1922 175.459 55.8087C175.554 56.4271 175.591 57.0534 175.57 57.679C175.529 58.3027 175.344 58.9075 175.03 59.4434C174.715 59.9794 174.281 60.4313 173.762 60.7617C174.346 60.4787 174.852 60.0525 175.235 59.521C175.619 58.9895 175.868 58.3692 175.96 57.7153C176.026 57.0625 176.026 56.4045 175.96 55.7517C175.915 55.099 175.818 54.4721 175.808 53.8555C175.801 52.6177 176.014 51.3888 176.436 50.2289C176.649 49.6604 176.917 49.1154 177.237 48.6021C177.575 48.0829 177.947 47.5879 178.351 47.1204C178.77 46.6242 179.162 46.1054 179.526 45.5661C179.901 45.0127 180.204 44.4119 180.427 43.7787C180.633 43.1488 180.777 42.4998 180.858 41.841C180.954 41.1986 181.025 40.5665 181.096 39.9293C181.248 38.6599 181.375 37.3906 181.557 36.1265C181.705 34.8822 181.976 33.6566 182.367 32.4688Z" fill="#263238"/>
<path d="M189.078 53.5394C187.868 60.5854 185.659 72.0922 181.369 77.6824C179.019 80.7547 174.167 85.0082 167.821 86.4226V71.2581C168.257 71.0198 173.114 69.1288 174.866 67.4812C176.33 66.1031 178.751 60.1969 184.809 52.5602C187.513 49.146 189.671 50.0837 189.078 53.5394Z" fill="#D3766A"/>
<path d="M177.059 63.5025L186.647 68.0669C186.647 68.0669 188.607 60.2489 189.316 54.638C190.051 48.8043 187.29 48.3846 183.279 53.8246C180.999 56.9067 178.921 60.1397 177.059 63.5025Z" fill="#2962FF"/>
<path d="M186.931 65.554C185.624 64.782 181.359 63.0413 180.686 62.7459C180.316 62.5853 178.822 62.031 178.457 61.8755C178.412 61.8755 178.386 61.9325 178.457 61.9533C179.151 62.2538 179.825 62.632 180.519 62.9376C181.212 63.2433 185.467 65.181 186.931 65.611C186.941 65.6265 186.961 65.5695 186.931 65.554Z" fill="#263238"/>
<path d="M198.803 58.1972V87.5988H196.174C191.221 87.5988 185.685 87.5677 181.729 87.5263H180.944H180.833C179.992 87.5263 179.242 87.5263 178.604 87.4952H177.156H176.355L176.421 87.0445L176.482 86.5989L176.578 85.9358L176.639 85.4902L176.735 84.827L176.796 84.3815L176.892 83.7183L176.953 83.2728L177.049 82.6096L177.115 82.1641L177.15 81.8998L177.206 81.5009L177.272 81.0553L177.363 80.3922L177.429 79.9466L177.52 79.2887L177.586 78.8379L177.677 78.1799L177.743 77.7292L177.839 77.0712L177.9 76.6205L177.996 75.9625L178.057 75.5118L178.153 74.8538L178.214 74.4031L178.31 73.7451L178.376 73.2943L178.467 72.6364L178.513 72.3152C178.502 72.3012 178.493 72.2854 178.488 72.2685C178.488 72.2685 178.488 72.2271 178.452 72.2012C178.44 72.1815 178.43 72.1607 178.422 72.139L178.361 72.0302C178.3 71.9059 178.219 71.7401 178.128 71.5432L177.93 71.0925C177.849 70.8904 177.763 70.6728 177.677 70.4345C177.627 70.2894 177.571 70.1392 177.525 69.9837C177.48 69.8283 177.389 69.5537 177.328 69.3258C177.287 69.1807 177.252 69.0305 177.216 68.875C177.181 68.7196 177.125 68.4398 177.09 68.2171C177.09 68.0979 177.049 67.9735 177.029 67.8492C177.029 67.8233 177.029 67.7922 177.029 67.7663C177.029 67.5487 176.983 67.3311 176.973 67.1083C176.963 66.8856 176.973 66.813 176.973 66.6628C176.973 66.5125 176.973 66.2172 177.009 65.9996C177.044 65.782 177.044 65.7043 177.069 65.5541C177.069 65.4867 177.069 65.4142 177.105 65.3468C177.136 65.1929 177.175 65.0407 177.221 64.8909C177.262 64.751 177.313 64.6008 177.368 64.4454C177.424 64.2899 177.439 64.2433 177.485 64.1397C177.527 64.0251 177.574 63.9127 177.627 63.8029C177.687 63.6579 177.753 63.5076 177.824 63.3574C177.895 63.2071 178.027 62.9222 178.138 62.6942L178.366 62.2486L178.488 62.0259C178.488 62.0259 178.488 61.9792 178.523 61.9533L178.726 61.5855C178.802 61.4404 178.888 61.2902 178.974 61.1399C179.06 60.9897 179.222 60.6996 179.354 60.4768L179.617 60.0312L180.022 59.3681C180.058 59.3111 180.093 59.2489 180.134 59.1919C180.174 59.1349 180.245 59.0158 180.301 58.9225L180.377 58.7982L180.716 58.2801L181.005 57.8345C181.147 57.6117 181.294 57.389 181.44 57.1714L181.734 56.7258L182.18 56.0626L182.332 55.8399L182.423 55.7052L182.484 55.6171C182.636 55.3891 182.788 55.1715 182.94 54.9591L183.254 54.5084L183.72 53.8504L184.044 53.3997C184.216 53.1665 184.373 52.9437 184.525 52.7417L184.859 52.2909C185.052 52.0319 185.219 51.8143 185.366 51.633C185.513 51.4516 185.624 51.3014 185.705 51.2133L185.756 51.1563L186.014 50.9025L186.08 50.8455C186.188 50.743 186.301 50.6461 186.419 50.5553C186.551 50.4517 186.683 50.3481 186.819 50.26C186.896 50.2034 186.975 50.1515 187.057 50.1046C187.794 49.6206 188.631 49.3197 189.502 49.2262C190.373 49.1326 191.253 49.2489 192.072 49.5658C192.358 49.6782 192.636 49.8133 192.902 49.9699C193.061 50.0543 193.215 50.1477 193.363 50.2497C193.449 50.3019 193.532 50.3589 193.611 50.4206C193.836 50.582 194.052 50.7549 194.26 50.9387L194.411 51.0786L194.467 51.1304L194.619 51.2755C194.705 51.3584 194.791 51.4413 194.872 51.5294C194.953 51.6174 195.065 51.7262 195.156 51.8298L195.465 52.1873C195.483 52.2088 195.5 52.2313 195.516 52.2547L195.809 52.6277C195.961 52.8349 196.118 53.0525 196.265 53.2857C196.367 53.4307 196.463 53.581 196.554 53.7364C196.686 53.9488 196.817 54.1664 196.949 54.3944C197.03 54.5446 197.116 54.6949 197.202 54.8451L197.547 55.5031L197.764 55.9487C197.871 56.1663 197.977 56.3839 198.083 56.6118C198.149 56.7569 198.22 56.9071 198.286 57.0574C198.352 57.2076 198.484 57.4926 198.58 57.7205C198.641 57.8552 198.701 58.0003 198.762 58.1402C198.762 58.1402 198.798 58.192 198.803 58.1972Z" fill="#2962FF"/>
<path opacity="0.1" d="M176.472 86.573L176.411 87.0185H198.793V86.573H176.472ZM176.629 85.4642L176.568 85.9098H198.793V85.4642H176.629ZM176.786 84.3555L176.725 84.8011H198.793V84.3555H176.786ZM176.943 83.2468L176.882 83.6924H198.793V83.2416L176.943 83.2468ZM177.105 82.1381L177.039 82.5837H198.793V82.1381H177.105ZM177.262 81.0294L177.196 81.4749H198.793V81.0294H177.262ZM177.419 79.9207L177.353 80.3662H198.793V79.9207H177.419ZM177.576 78.812L177.51 79.2627H198.782V78.812H177.576ZM177.733 77.7032L177.667 78.154H198.793V77.7032H177.733ZM177.89 76.5945L177.829 77.0453H198.793V76.5945H177.89ZM178.047 75.4858L177.986 75.9366H198.793V75.4703L178.047 75.4858ZM178.204 74.3771L178.143 74.8278H198.793V74.3771H178.204ZM178.366 73.2684L178.3 73.7191H198.793V73.2684H178.366ZM178.432 72.1597C178.432 72.1597 178.432 72.2063 178.467 72.227C178.473 72.2439 178.482 72.2597 178.493 72.2737L178.447 72.5949H198.782V72.1441L178.432 72.1597ZM184.809 71.051H178.032C178.083 71.2045 178.142 71.355 178.209 71.5017H184.631L184.809 71.051ZM177.91 71.051L178.108 71.5017H198.793V71.051H177.91ZM177.505 69.9422C177.551 70.0977 177.606 70.2479 177.657 70.393H198.793V69.9422H177.505ZM177.196 68.8335C177.232 68.989 177.267 69.1392 177.308 69.2843H198.793V68.8335H177.196ZM177.004 67.7248C177.001 67.735 177.001 67.7457 177.004 67.7559C177.004 67.8941 177.024 68.0339 177.064 68.1756H198.788V67.7248H177.004ZM195.663 67.0668C195.612 66.927 195.566 66.7819 195.511 66.6213H187.007C186.971 66.7819 186.936 66.9321 186.9 67.0668H195.663ZM176.923 66.6213C176.923 66.7715 176.923 66.9166 176.923 67.0668H198.767V66.6213H176.923ZM195.86 65.9581C195.809 65.8079 195.759 65.6628 195.713 65.5126H195.141L195.283 65.9581H195.86ZM177.019 65.5126C177.019 65.6628 176.973 65.8079 176.958 65.9581H198.777V65.5126H177.019ZM177.318 64.4039C177.262 64.5593 177.211 64.7095 177.171 64.8494H198.777V64.4039H177.318ZM177.779 63.2951C177.708 63.4454 177.642 63.5956 177.581 63.7407H198.777V63.2951H177.779ZM178.32 62.1864L178.093 62.632H198.777V62.1864H178.32ZM194.376 63.2951H181.998L183.051 63.7407H194.508L194.422 63.4195L194.376 63.2951ZM178.928 61.0777C178.842 61.228 178.756 61.3782 178.68 61.5233H198.777V61.0777H178.928ZM179.572 59.969L179.308 60.4146H198.777V59.969H179.572ZM193.713 61.0777C193.768 61.2228 193.824 61.3678 193.885 61.5129H193.915C193.875 61.3627 193.839 61.2176 193.804 61.0674L193.713 61.0777ZM180.255 58.8603C180.2 58.9535 180.139 59.0416 180.088 59.1297C180.037 59.2178 180.012 59.2489 179.977 59.3058H198.777V58.8603H180.255ZM198.777 58.1764C198.717 58.0365 198.656 57.8915 198.595 57.7568H180.974L180.686 58.2023H198.803C198.803 58.2023 198.798 58.1816 198.793 58.1764H198.777ZM198.099 56.6221H181.689L181.395 57.0677H198.301C198.251 56.9382 198.18 56.7879 198.114 56.6429L198.099 56.6221ZM197.562 55.5134H182.448L182.388 55.6015L182.296 55.7362L182.144 55.959H197.795L197.562 55.5134ZM181.734 56.6221L181.532 56.9589L181.461 57.0677H188.445C188.476 56.9174 188.501 56.7672 188.526 56.6221H181.734ZM196.964 54.4047H183.223L182.909 54.8554H197.233C197.136 54.7466 197.06 54.5757 196.979 54.4254L196.964 54.4047ZM196.28 53.296H184.013L183.689 53.7467H196.584C196.493 53.6051 196.397 53.4618 196.296 53.3167L196.28 53.296ZM195.82 52.6277L195.526 52.2546C195.51 52.2312 195.493 52.2087 195.475 52.1873H184.839L184.474 52.6743H195.82H195.835L195.82 52.6277ZM194.629 51.2754L194.472 51.1304L194.417 51.0786H185.695C185.614 51.1666 185.502 51.3065 185.356 51.4982H194.923C194.817 51.4619 194.731 51.3791 194.645 51.2962L194.629 51.2754ZM186.105 52.1873C186.147 52.344 186.207 52.4953 186.282 52.638H192.649C192.675 52.4856 192.71 52.335 192.755 52.1873H186.105ZM193.363 50.2496C193.215 50.1476 193.061 50.0542 192.902 49.9698H187.047C186.965 50.0168 186.885 50.0687 186.809 50.1253C186.672 50.2134 186.541 50.317 186.409 50.4206H193.626C193.546 50.3659 193.464 50.3158 193.378 50.2703L193.363 50.2496Z" fill="#0F172A"/>
<path d="M191.95 50.6018C191.778 51.0681 189.782 52.9384 187.695 52.296C186.682 51.9903 186.804 49.4568 186.804 49.4568L186.779 49.1564L186.404 44.9805L191.469 42.5352L192.193 42.2191C192.193 42.2191 192.223 43.3693 192.244 44.8096V45.0116C192.244 45.0945 192.244 45.1722 192.244 45.2448C192.244 45.4624 192.244 45.68 192.244 45.8976C192.244 46.1152 192.244 46.224 192.244 46.4157C192.244 46.6073 192.244 46.7576 192.244 46.9337C192.226 48.1618 192.128 49.3872 191.95 50.6018Z" fill="#D3766A"/>
<path d="M192.234 44.8251C191.688 45.9122 190.917 46.8646 189.975 47.6162C189.033 48.3677 187.942 48.9004 186.779 49.177L186.404 45.0012L191.469 42.5558L192.193 42.2398C192.193 42.2398 192.213 43.39 192.234 44.8251Z" fill="#263238"/>
<path d="M181.207 38.8412C180.635 46.1877 184.874 47.3638 186.419 47.4881C187.827 47.6021 192.624 47.8041 193.935 40.5612C195.247 33.3183 192.087 30.7175 188.871 30.2927C185.654 29.8678 181.78 31.4998 181.207 38.8412Z" fill="#D3766A"/>
<path d="M182.418 37.2819C182.585 37.2819 182.742 37.2197 182.924 37.1834C183.111 37.1761 183.289 37.1049 183.431 36.9814C183.465 36.9353 183.484 36.8788 183.484 36.8208C183.484 36.7627 183.465 36.7063 183.431 36.6602C183.35 36.5799 183.249 36.5231 183.14 36.4958C183.03 36.4685 182.916 36.4716 182.808 36.5047C182.578 36.5348 182.368 36.6534 182.22 36.8363C182.191 36.8764 182.173 36.9237 182.168 36.9733C182.163 37.023 182.171 37.0731 182.191 37.1186C182.211 37.164 182.243 37.2031 182.283 37.2318C182.322 37.2606 182.369 37.2778 182.418 37.2819Z" fill="#263238"/>
<path d="M187.123 37.5408C186.956 37.5149 186.804 37.4683 186.617 37.4268C186.441 37.4152 186.275 37.342 186.146 37.2196C186.111 37.1735 186.093 37.117 186.093 37.059C186.093 37.0009 186.111 36.9445 186.146 36.8984C186.229 36.8199 186.331 36.7651 186.441 36.7397C186.551 36.7142 186.666 36.7189 186.774 36.7533C187.003 36.7883 187.211 36.9104 187.356 37.0952C187.387 37.1378 187.405 37.1884 187.409 37.2411C187.413 37.2939 187.402 37.3467 187.377 37.3933C187.353 37.4399 187.316 37.4785 187.271 37.5047C187.226 37.5308 187.175 37.5433 187.123 37.5408Z" fill="#263238"/>
<path d="M185.994 39.3903C185.994 39.3903 186.034 39.3903 186.029 39.4369C185.999 39.955 186.029 40.5145 186.485 40.6958C186.485 40.6958 186.485 40.7269 186.485 40.7218C185.943 40.6285 185.892 39.8565 185.994 39.3903Z" fill="#263238"/>
<path d="M186.455 38.8826C187.245 38.8464 187.255 40.4628 186.52 40.4991C185.786 40.5353 185.791 38.9085 186.455 38.8826Z" fill="#263238"/>
<path d="M186.763 38.9657C186.905 39.0538 187.042 39.2144 187.209 39.23C187.376 39.2455 187.543 39.0797 187.67 38.9139H187.695C187.695 39.2248 187.589 39.5408 187.265 39.5926C186.941 39.6444 186.758 39.3595 186.677 39.0486C186.662 39.0124 186.708 38.9295 186.763 38.9657Z" fill="#263238"/>
<path d="M183.35 39.1262C183.35 39.1262 183.315 39.1521 183.315 39.1728C183.315 39.6909 183.279 40.2504 182.838 40.4214V40.4525C183.38 40.3644 183.461 39.5976 183.35 39.1262Z" fill="#263238"/>
<path d="M182.904 38.6081C182.114 38.5615 182.078 40.1624 182.808 40.2246C183.537 40.2867 183.567 38.6496 182.904 38.6081Z" fill="#263238"/>
<path d="M182.575 38.6857C182.448 38.7686 182.317 38.924 182.17 38.9292C182.023 38.9344 181.871 38.7583 181.765 38.5873C181.765 38.8981 181.841 39.2194 182.129 39.2867C182.418 39.3541 182.595 39.0898 182.676 38.7686C182.666 38.7634 182.626 38.6857 182.575 38.6857Z" fill="#263238"/>
<path d="M186.384 43.3487C186.282 43.4835 186.191 43.6596 186.019 43.701C185.837 43.7219 185.653 43.7061 185.477 43.6544C185.447 43.6544 185.477 43.6544 185.477 43.6544C185.56 43.7419 185.665 43.8045 185.78 43.8356C185.895 43.8666 186.016 43.8649 186.13 43.8306C186.231 43.7901 186.315 43.7181 186.373 43.6249C186.43 43.5317 186.457 43.4223 186.45 43.3125C186.439 43.3073 186.399 43.3021 186.384 43.3487Z" fill="#263238"/>
<path d="M184.069 41.3798C184.069 41.3798 183.963 42.1311 183.963 42.4834C183.963 42.5145 184.044 42.53 184.16 42.5404C184.456 42.5988 184.762 42.5721 185.043 42.4633C185.325 42.3544 185.572 42.1676 185.756 41.9238C185.781 41.8876 185.756 41.8513 185.705 41.872C185.259 42.1833 184.724 42.3345 184.185 42.302C184.185 42.2036 184.408 41.0275 184.353 41.0224C184.085 41.0475 183.821 41.1066 183.568 41.1985C183.74 39.6442 184.16 38.09 184.312 36.5357C184.312 36.4787 184.236 36.4632 184.221 36.5357C183.722 38.1548 183.382 39.821 183.208 41.5094C183.218 41.701 183.927 41.442 184.069 41.3798Z" fill="#263238"/>
<path d="M184.186 42.442C184.388 42.7403 184.662 42.9809 184.981 43.1414C185.156 43.2265 185.353 43.2502 185.543 43.2088C185.953 43.1259 185.984 42.7425 185.928 42.4109C185.897 42.2328 185.846 42.059 185.776 41.8928C185.317 42.2451 184.759 42.4375 184.186 42.442Z" fill="#263238"/>
<path d="M184.981 43.1414C185.156 43.2264 185.353 43.2501 185.543 43.2087C185.953 43.1258 185.984 42.7424 185.928 42.4109C185.713 42.4069 185.503 42.4767 185.331 42.6091C185.159 42.7415 185.036 42.9289 184.981 43.1414Z" fill="#FF9ABB"/>
<path d="M193.728 40.0328C192.948 39.9861 190.922 37.7894 190.861 33.9452C190.861 33.9452 191.15 37.3957 191.403 37.9034C191.656 38.4111 190.268 36.6652 190.177 33.567C189.223 34.2649 188.176 34.8197 187.067 35.2145C185.634 35.6238 184.758 35.6083 184.652 35.5046C184.545 35.401 186.677 34.7223 187.23 34.0488C187.23 34.0488 183.421 35.8569 181.658 35.9968C181.456 35.9968 181.212 31.7381 183.927 29.9248C186.642 28.1115 190.947 30.0699 192.102 31.2149C192.102 31.2149 193.459 31.4117 194.933 33.4685C196.407 35.5254 194.569 40.0846 193.728 40.0328Z" fill="#263238"/>
<path d="M192.203 41.0949C192.203 41.0949 193.647 38.7117 194.7 39.2246C195.754 39.7375 194.751 43.131 193.581 43.6595C193.435 43.7369 193.276 43.7834 193.112 43.7963C192.948 43.8092 192.784 43.7881 192.628 43.7344C192.472 43.6807 192.329 43.5955 192.206 43.4838C192.084 43.3721 191.984 43.2363 191.914 43.0844L192.203 41.0949Z" fill="#D3766A"/>
<path d="M194.391 40.1882C194.391 40.1882 194.391 40.1882 194.391 40.2245C194.015 40.4424 193.688 40.7399 193.433 41.0973C193.178 41.4547 193 41.8637 192.912 42.2969C192.956 42.2051 193.019 42.1244 193.096 42.0605C193.174 41.9966 193.264 41.9512 193.361 41.9274C193.458 41.9036 193.559 41.9021 193.657 41.923C193.754 41.9439 193.846 41.9866 193.925 42.0482V42.1C193.775 42.059 193.617 42.0669 193.471 42.1226C193.326 42.1783 193.201 42.2791 193.115 42.4108C192.974 42.6329 192.855 42.869 192.76 43.1154C192.725 43.1932 192.588 43.1621 192.614 43.074C192.502 41.9446 193.247 40.3644 194.391 40.1882Z" fill="#263238"/>
<path d="M192.578 43.5403C192.587 43.6403 192.624 43.7355 192.685 43.8143C192.745 43.8932 192.827 43.9523 192.92 43.9845C193.013 44.0166 193.113 44.0205 193.208 43.9955C193.303 43.9706 193.389 43.9179 193.456 43.8439C193.522 43.7699 193.566 43.6778 193.582 43.5788C193.598 43.4798 193.586 43.3781 193.546 43.2861C193.507 43.1941 193.443 43.1158 193.361 43.0607C193.279 43.0056 193.183 42.976 193.084 42.9756C193.014 42.9753 192.944 42.9901 192.88 43.019C192.815 43.0479 192.757 43.0903 192.709 43.1434C192.662 43.1966 192.625 43.2594 192.603 43.3277C192.58 43.396 192.572 43.4685 192.578 43.5403Z" fill="white"/>
<path d="M198.803 58.1972V74.5326L198.747 74.3771L198.519 73.7192C198.463 73.5689 198.413 73.4187 198.362 73.2684L198.134 72.6105L197.977 72.1597L197.749 71.5017C197.698 71.3515 197.648 71.2013 197.592 71.051C197.536 70.9008 197.445 70.6106 197.369 70.393C197.293 70.1754 197.268 70.0925 197.212 69.9423C197.157 69.792 197.065 69.5019 196.989 69.2843L196.837 68.8336L196.701 68.4139V68.3725L196.64 68.1963L196.488 67.7456C196.412 67.5228 196.341 67.3052 196.27 67.0876C196.27 67.0358 196.235 66.984 196.22 66.9374C196.217 66.9115 196.217 66.8855 196.22 66.8597C196.194 66.7871 196.169 66.7146 196.149 66.6421C196.073 66.4193 196.002 66.1965 195.931 65.9789C195.86 65.7613 195.83 65.6836 195.784 65.5333C195.738 65.3831 195.637 65.0878 195.566 64.8702C195.495 64.6526 195.47 64.5697 195.424 64.4246C195.379 64.2796 195.313 64.0827 195.262 63.9065C195.262 63.8547 195.227 63.8029 195.212 63.7511C195.166 63.6009 195.115 63.4506 195.07 63.3056C194.999 63.0828 194.928 62.86 194.862 62.6424L194.725 62.1968C194.654 61.9741 194.584 61.7513 194.523 61.5337C194.462 61.3161 194.427 61.2332 194.386 61.0881C194.315 60.8602 194.249 60.6426 194.189 60.425C194.128 60.2074 194.097 60.1245 194.057 59.9794C193.991 59.7515 193.925 59.5339 193.864 59.3163C193.804 59.0987 193.778 59.0158 193.738 58.8707C193.672 58.6427 193.611 58.42 193.555 58.2075C193.5 57.9951 193.474 57.907 193.434 57.762C193.393 57.6169 193.338 57.389 193.292 57.2076C193.29 57.1714 193.29 57.135 193.292 57.0988C193.251 56.9434 193.216 56.7983 193.186 56.6533C193.13 56.4253 193.084 56.2025 193.044 55.9901C193.003 55.7777 192.988 55.6896 192.963 55.5445C192.922 55.3166 192.892 55.0938 192.867 54.8866C192.841 54.6793 192.831 54.5809 192.821 54.4358C192.821 54.2027 192.791 53.9851 192.791 53.7779C192.791 53.5706 192.791 53.467 192.791 53.3271C192.802 53.1066 192.826 52.887 192.862 52.6692C192.884 52.516 192.919 52.3651 192.968 52.2184C193.033 51.9797 193.143 51.7562 193.292 51.5604C193.388 51.4323 193.509 51.3266 193.648 51.2506C193.787 51.1747 193.94 51.1301 194.097 51.1201C194.224 51.1204 194.35 51.1379 194.472 51.1719C195.161 51.3377 196.017 51.949 197.005 53.0318C197.592 53.695 198.195 54.4099 198.798 55.1767V58.1972C198.798 58.1972 198.798 58.192 198.803 58.1972Z" fill="#D3766A"/>
<path d="M198.803 58.1972V67.3778L198.063 67.7249L197.101 68.1756L196.696 68.3622L196.189 68.5849C196.189 68.5849 196.134 68.4399 196.037 68.1653C195.992 68.0409 195.941 67.8907 195.88 67.7146C195.82 67.5384 195.738 67.3053 195.657 67.0566C195.607 66.9167 195.561 66.7716 195.505 66.611L195.293 65.9479L195.151 65.5023C195.09 65.2899 195.019 65.0723 194.948 64.8391C194.903 64.6941 194.862 64.549 194.817 64.3936L194.644 63.8237C194.638 63.792 194.63 63.7608 194.619 63.7304C194.579 63.5854 194.533 63.4403 194.487 63.2849C194.442 63.1294 194.366 62.8497 194.305 62.6217C194.265 62.4767 194.224 62.3264 194.178 62.1762C194.133 62.0259 194.062 61.7358 194.001 61.513C193.94 61.2902 193.925 61.2177 193.89 61.0674C193.854 60.9172 193.773 60.6271 193.718 60.4043C193.682 60.2592 193.642 60.109 193.606 59.9587C193.571 59.8085 193.5 59.5184 193.444 59.2956C193.388 59.0728 193.373 59.0003 193.343 58.85C193.312 58.6998 193.287 58.6272 193.262 58.5133C193.236 58.3993 193.211 58.2957 193.191 58.1869C193.171 58.0781 193.12 57.8916 193.09 57.7413L193.029 57.4615C192.998 57.332 192.973 57.2025 192.948 57.0781C192.922 56.9538 192.887 56.7777 192.862 56.6326C192.821 56.4046 192.781 56.1819 192.75 55.9694C192.72 55.757 192.705 55.6689 192.684 55.5239C192.659 55.2959 192.634 55.0783 192.613 54.8659L192.583 54.4152C192.583 54.182 192.583 53.9644 192.583 53.7572C192.583 53.5499 192.583 53.4463 192.583 53.3064C192.596 53.0858 192.622 52.8662 192.659 52.6485C192.685 52.496 192.72 52.3455 192.765 52.1977C192.826 51.9637 192.923 51.7414 193.054 51.5398C193.168 51.3505 193.329 51.1951 193.52 51.089C193.749 50.9618 194.012 50.9127 194.27 50.9491C195.105 51.0424 196.22 51.804 197.542 53.2909C197.947 53.752 198.362 54.239 198.782 54.7467V58.1661C198.782 58.1661 198.798 58.192 198.803 58.1972Z" fill="#2962FF"/>
<path d="M196.63 68.3517C196.495 68.4111 196.354 68.4529 196.209 68.476C196.149 68.0823 195.652 66.4037 195.526 65.9788C195.273 65.0877 195.019 64.207 194.751 63.3158C194.244 61.5388 193.738 59.7566 193.231 57.9847C193.231 57.9484 193.171 57.9847 193.176 57.9847C193.399 59.2436 193.682 60.4871 193.991 61.7201C193.905 61.5077 193.819 61.2901 193.738 61.0725C193.576 60.6425 193.424 60.2125 193.231 59.7876C193.231 59.7808 193.229 59.7742 193.224 59.7693C193.219 59.7645 193.213 59.7617 193.206 59.7617C193.199 59.7617 193.193 59.7645 193.188 59.7693C193.183 59.7742 193.181 59.7808 193.181 59.7876C193.292 60.2411 193.44 60.6847 193.621 61.1139C193.758 61.4455 193.915 61.7719 194.067 62.0983C194.178 62.5283 194.29 62.9584 194.406 63.3884C194.644 64.2847 194.913 65.1758 195.166 66.0565C195.298 66.4814 195.435 66.901 195.571 67.3207C195.724 67.7749 195.917 68.2137 196.149 68.6315C196.324 68.5674 196.494 68.4877 196.655 68.3931C196.726 68.3983 196.686 68.331 196.63 68.3517Z" fill="#263238"/>
<path d="M198.793 65.4815V65.7768L198.408 65.9581L198.281 66.0151C197.81 66.2327 197.329 66.4192 196.853 66.6213C196.63 66.7146 196.407 66.813 196.189 66.9166C196.144 66.9166 196.103 66.87 196.149 66.8441H196.174L196.589 66.6265L197.846 65.9633C198.028 65.8701 198.18 65.7872 198.271 65.7457L198.737 65.5178L198.793 65.4815Z" fill="#263238"/>
<path d="M186.049 50.6019C186.049 50.6019 186.085 50.6019 186.08 50.6019C185.938 51.5345 185.989 52.524 186.733 53.1923C187.478 53.8607 188.587 53.669 189.443 53.4877C190.335 53.3036 191.177 52.9216 191.909 52.3686C192.553 51.8505 193.09 50.8506 192.517 50.0164C192.517 49.975 192.517 49.9543 192.548 49.9854C192.771 50.2275 192.914 50.5348 192.959 50.8644C193.003 51.194 192.946 51.5297 192.796 51.8246C192.38 52.5331 191.746 53.08 190.993 53.3789C190.198 53.7619 189.338 53.9835 188.46 54.0317C188.072 54.0883 187.677 54.0412 187.312 53.895C186.947 53.7489 186.626 53.5086 186.379 53.1975C186.13 52.8212 185.97 52.3904 185.913 51.9397C185.856 51.489 185.902 51.0308 186.049 50.6019Z" fill="#263238"/>
<path d="M198.879 187.16C198.848 187.238 198.818 187.31 198.793 187.388V187.269L198.879 187.16Z" fill="#A6A6A6"/>
<path d="M69.5984 176.234C85.345 176.234 94.4617 187.419 94.4617 200.584C94.4617 213.749 86.0136 224.68 70.657 224.68C53.6644 224.68 45.5505 210.858 45.5505 200.465C45.5505 190.072 53.6644 176.234 69.5984 176.234Z" fill="#37474F"/>
<path d="M67.1775 176.234C82.1441 176.234 90.8151 187.419 90.8151 200.584C90.8151 213.749 82.7823 224.68 68.1854 224.68C52.0336 224.68 44.3198 210.858 44.3198 200.465C44.3198 190.072 52.0336 176.234 67.1775 176.234Z" fill="#263238"/>
<path d="M67.3294 185.689C76.4461 185.689 81.7338 192.507 81.7338 200.527C81.7338 208.547 76.8412 215.205 67.9423 215.205C58.1013 215.205 53.4011 206.78 53.4011 200.444C53.4011 194.108 58.1013 185.689 67.3294 185.689Z" fill="#C7C7C7"/>
<path d="M44.1272 121.238H37.9329L33.6885 114.866H40.9465L44.1272 121.238Z" fill="#2962FF"/>
<path d="M33.6885 114.866L36.1754 118.596L37.9329 121.238H44.1272L42.4507 117.881L40.9414 114.866H33.6885Z" fill="#2962FF"/>
<path opacity="0.1" d="M33.6885 114.866L36.1754 118.596L42.4507 117.881L40.9414 114.866H33.6885Z" fill="#0F172A"/>
<path d="M59.18 168.794L53.1478 170.214L47.617 164.971L54.6875 163.313L59.18 168.794Z" fill="#2962FF"/>
<path d="M47.617 164.971L50.8534 168.038L53.1427 170.214L59.1851 168.794L56.8147 165.908L54.6875 163.313L47.617 164.971Z" fill="#2962FF"/>
<path opacity="0.1" d="M47.617 164.971L50.8534 168.038L56.8147 165.908L54.6875 163.313L47.617 164.971Z" fill="#0F172A"/>
<path d="M-30.093 187.606L-28.3608 191.528C-28.3608 191.528 18.4739 195.191 22.9208 194.512C26.6412 190.03 29.7757 185.071 32.2452 179.762H11.0589C7.9047 179.797 4.78502 179.088 1.9422 177.689L-0.792818 177.223L-5.72091 179.741L-11.1048 187.585L-26.0715 187.305L-30.093 187.606Z" fill="#455A64"/>
<path d="M-5.73102 179.762C-5.73102 179.762 6.26254 187.305 29.6419 184.746C30.508 183.233 31.3893 181.57 32.2452 179.762H11.0589C7.90473 179.797 4.78505 179.088 1.94222 177.689L-0.792792 177.223L-5.73102 179.762Z" fill="#37474F"/>
<path d="M93.0944 179.342L87.2293 182.492C87.2293 182.492 70.257 179.342 59.3726 181.725C48.4883 184.109 45.5507 190.056 45.5507 190.056H40.0553C40.0553 190.056 44.7757 172.902 52.7883 166.654C60.8009 160.406 73.6656 161.826 80.7817 165.748C87.8979 169.67 93.0944 179.342 93.0944 179.342Z" fill="#2962FF"/>
<path opacity="0.1" d="M86.6164 181.306C85.4825 180.092 84.2526 178.976 82.9393 177.969C81.6379 176.936 80.2632 176.002 78.8266 175.177C76.0385 173.597 72.9828 172.572 69.8213 172.156C63.6321 171.379 57.1592 173.224 52.6009 178.088C50.038 180.845 48.2147 184.223 46.4825 187.642C46.4825 187.694 46.5281 187.735 46.5534 187.683C48.021 184.682 49.8743 181.894 52.064 179.394C54.1739 177.037 56.8001 175.226 59.7271 174.11C65.5669 171.918 71.9081 172.757 77.4996 175.405C79.1035 176.153 80.6523 177.019 82.134 177.995C83.6534 179.031 85.0918 180.187 86.5151 181.363C86.5244 181.372 86.5363 181.377 86.5491 181.379C86.5618 181.381 86.5747 181.378 86.586 181.372C86.5972 181.366 86.6062 181.356 86.6117 181.344C86.6171 181.332 86.6188 181.319 86.6164 181.306Z" fill="#0F172A"/>
<path d="M5.62945 146.718V144.599L-47.3438 146.345V151.111C-47.3438 151.111 -62.6903 168.442 -64.2097 186.456L-11.0896 187.606L-5.70568 179.762L-0.777596 177.244L1.95744 177.71V176.498L-0.13942 173.975L-0.230583 166.504C-1.03025 165.362 -1.59933 164.068 -1.90457 162.698C-2.20981 161.328 -2.24509 159.909 -2.00835 158.525C-1.44109 154.536 5.62945 146.718 5.62945 146.718Z" fill="#2962FF"/>
<path opacity="0.1" d="M-5.73093 179.762L-0.802825 177.244L1.93219 177.71V176.498L-0.16465 173.98L-0.255829 166.514C-1.05677 165.373 -1.6266 164.079 -1.93189 162.709C-2.23718 161.338 -2.27175 159.92 -2.03358 158.536C-1.44099 154.541 5.62954 146.723 5.62954 146.723H3.57826C3.57826 146.723 -7.5644 152.604 -10.0968 157.458C-12.6292 162.313 -13.394 173.695 -5.73093 179.762Z" fill="#0F172A"/>
<path d="M22.2168 117.809C22.1257 118.021 9.89405 120.327 9.89405 120.327C9.89405 120.327 7.86811 118.928 9.11913 117.156L21.3862 114.446C21.8588 114.842 22.1947 115.382 22.3443 115.987C22.4939 116.593 22.4492 117.231 22.2168 117.809Z" fill="#263238"/>
<path d="M47.8905 101.634V116.477C47.8905 116.477 40.0552 115.778 37.9684 115.705C35.8817 115.633 26.608 116.86 26.608 116.86L25.8888 113.534C25.8888 113.534 33.0353 110.98 36.0742 108.985C39.1131 106.991 42.6129 103.178 44.492 102.333C45.557 101.835 46.7201 101.596 47.8905 101.634Z" fill="#2962FF"/>
<path d="M26.6385 113.115C27.1043 113.605 27.4557 114.196 27.6662 114.845C27.8767 115.494 27.9409 116.183 27.854 116.861C27.854 116.861 22.0143 117.954 21.9434 117.954C21.9899 117.248 21.8196 116.545 21.4563 115.943C21.0931 115.341 20.5551 114.87 19.9174 114.596L26.6385 113.115Z" fill="#DBDBDB"/>
<path d="M47.9665 116.477C50.0868 116.477 51.8057 113.156 51.8057 109.058C51.8057 104.961 50.0868 101.639 47.9665 101.639C45.8462 101.639 44.1274 104.961 44.1274 109.058C44.1274 113.156 45.8462 116.477 47.9665 116.477Z" fill="#DBDBDB"/>
<path d="M44.9174 109.058C44.9174 112.685 46.3913 115.674 48.2045 115.674C50.0177 115.674 51.4916 112.711 51.4916 109.058C51.4916 105.406 50.0177 102.437 48.2045 102.437C46.3913 102.437 44.9174 105.4 44.9174 109.058Z" fill="white"/>
<path d="M5.62927 144.599C5.62927 144.599 5.72549 135.548 5.38108 135.196C5.03667 134.843 -47.6833 135.03 -49.2585 135.196C-50.8336 135.362 -50.6969 145.905 -50.5602 146.397C-50.4234 146.889 4.26176 144.718 5.62927 144.599Z" fill="#37474F"/>
<path d="M10.3093 135.289C10.1523 135.149 3.46666 135.118 3.10199 135.118C2.73732 135.118 2.86901 144.765 3.10199 144.749C3.33497 144.734 10.3549 144.692 10.5828 144.48C10.8107 144.268 10.6537 135.595 10.3093 135.289Z" fill="#455A64"/>
<path d="M9.22534 78.2058H-6.54658L-18.8947 102.898H-3.12276L9.22534 78.2058Z" fill="#37474F"/>
<path d="M49.2022 121.238C50.4786 123.15 55.589 149.148 56.5918 150.454C57.5947 151.759 59.5142 151.852 59.5142 151.852L62.9178 160.437C62.9178 160.437 54.5254 163.147 49.8657 167.064C43.8183 172.131 38.252 188.932 38.252 188.932C37.3403 189.585 26.0255 194.346 22.9207 194.533C22.9207 194.533 37.3505 178.327 38.5255 155.899C38.9813 147.205 33.7595 134.973 33.4151 128.911C33.0504 122.425 34.9649 121.259 38.3432 121.259L49.2022 121.238Z" fill="#2962FF"/>
<path d="M22.2268 196.398L19.9679 194.211C32.63 180.503 37.2998 158.904 36.9301 153.008C36.7376 149.982 35.7905 146.604 34.7826 143.029C33.7088 139.211 32.4933 134.885 31.9766 130.186C31.4702 125.823 31.9766 123.005 33.4303 121.321C34.8839 119.637 36.8794 119.643 38.2064 119.643H50.2557V122.829H38.2013C37.0415 122.829 36.2514 122.87 35.7499 123.445C35.2485 124.021 34.5952 125.518 35.0713 129.833C35.5777 134.263 36.6869 138.273 37.7759 142.149C38.8294 145.894 39.8272 149.438 40.0348 152.8C40.4299 159.08 35.5676 181.995 22.2268 196.398Z" fill="#DBDBDB"/>
<path d="M56.6527 157.567C57.3618 160.235 59.5954 161.94 61.6467 161.37C63.6979 160.8 64.7768 158.173 64.0626 155.505C63.3485 152.837 61.1199 151.127 59.0687 151.697C57.0174 152.267 55.9386 154.894 56.6527 157.567Z" fill="#DBDBDB"/>
<path d="M57.4124 157.354C58.0506 159.738 59.9803 161.271 61.7327 160.784C63.4852 160.297 64.3867 157.971 63.7587 155.603C63.1306 153.236 61.1908 151.687 59.4434 152.174C57.696 152.661 56.7793 154.971 57.4124 157.354Z" fill="white"/>
<path opacity="0.1" d="M47.6931 157.132C47.1309 154.448 46.5231 151.77 45.9964 149.076C45.4696 146.381 44.9834 143.682 44.5731 140.973C44.173 138.449 43.7425 135.9 43.5855 133.346C43.4285 130.678 43.5855 127.984 44.8517 125.575C44.8544 125.57 44.8561 125.565 44.8568 125.559C44.8574 125.554 44.8571 125.549 44.8556 125.543C44.8542 125.538 44.8518 125.533 44.8485 125.529C44.8453 125.524 44.8412 125.521 44.8365 125.518C44.8319 125.515 44.8267 125.513 44.8214 125.513C44.8161 125.512 44.8107 125.512 44.8055 125.514C44.8003 125.515 44.7955 125.518 44.7913 125.521C44.787 125.525 44.7835 125.529 44.7808 125.533C43.4791 127.476 43.0537 129.808 42.9828 132.124C42.9892 134.679 43.2095 137.228 43.6412 139.745C44.3802 145.267 45.3945 150.747 46.6801 156.163C47.4145 159.225 48.3617 162.235 49.3746 165.209C49.378 165.218 49.3849 165.226 49.394 165.231C49.403 165.235 49.4133 165.236 49.4227 165.232C49.4321 165.229 49.4398 165.222 49.4441 165.212C49.4484 165.203 49.4489 165.193 49.4455 165.183C48.8411 162.51 48.257 159.826 47.6931 157.132Z" fill="#0F172A"/>
</g>
</svg>
