<svg width="64" height="64" viewBox="0 0 64 64" fill="none" xmlns="http://www.w3.org/2000/svg">
<path d="M42.6667 26.6667C42.6667 29.4957 41.5429 32.2088 39.5425 34.2092C37.5421 36.2095 34.829 37.3334 32 37.3334C29.171 37.3334 26.4579 36.2095 24.4575 34.2092C22.4571 32.2088 21.3333 29.4957 21.3333 26.6667" stroke="white" stroke-width="5.33333" stroke-linecap="round" stroke-linejoin="round"/>
<path d="M8.27467 16.0906H55.7253" stroke="white" stroke-width="5.33333" stroke-linecap="round" stroke-linejoin="round"/>
<path d="M9.0667 14.5786C8.37431 15.5018 8.00003 16.6247 8.00003 17.7786V53.3333C8.00003 54.7478 8.56193 56.1044 9.56213 57.1045C10.5623 58.1047 11.9189 58.6666 13.3334 58.6666H50.6667C52.0812 58.6666 53.4377 58.1047 54.4379 57.1045C55.4381 56.1044 56 54.7478 56 53.3333V17.7786C56 16.6247 55.6258 15.5018 54.9334 14.5786L49.6 7.46665C49.1032 6.80427 48.4591 6.26665 47.7185 5.89637C46.9779 5.52609 46.1613 5.33331 45.3334 5.33331H18.6667C17.8387 5.33331 17.0221 5.52609 16.2816 5.89637C15.541 6.26665 14.8968 6.80427 14.4 7.46665L9.0667 14.5786Z" stroke="white" stroke-width="5.33333" stroke-linecap="round" stroke-linejoin="round"/>
</svg>
