<svg width="20" height="20" viewBox="0 0 20 20" fill="none" xmlns="http://www.w3.org/2000/svg">
<path d="M3.33738 13.3333V3.33332H1.67072V1.66666H4.17072C4.63096 1.66666 5.00405 2.03976 5.00405 2.49999V12.5H15.3694L17.0361 5.83332H6.67072V4.16666H18.1034C18.5636 4.16666 18.9367 4.53976 18.9367 4.99999C18.9367 5.06812 18.9284 5.13601 18.9118 5.20211L16.8285 13.5354C16.7358 13.9064 16.4025 14.1667 16.0201 14.1667H4.17072C3.71048 14.1667 3.33738 13.7936 3.33738 13.3333ZM5.00405 19.1667C4.08357 19.1667 3.33738 18.4205 3.33738 17.5C3.33738 16.5795 4.08357 15.8333 5.00405 15.8333C5.92452 15.8333 6.67072 16.5795 6.67072 17.5C6.67072 18.4205 5.92452 19.1667 5.00405 19.1667ZM15.0041 19.1667C14.0836 19.1667 13.3374 18.4205 13.3374 17.5C13.3374 16.5795 14.0836 15.8333 15.0041 15.8333C15.9246 15.8333 16.6707 16.5795 16.6707 17.5C16.6707 18.4205 15.9246 19.1667 15.0041 19.1667Z" fill="white"/>
</svg>
